<svg width="244" height="52" viewBox="0 0 244 52" fill="none" xmlns="http://www.w3.org/2000/svg">
<path d="M0 6C0 2.68629 2.68629 0 6 0H238C241.314 0 244 2.68629 244 6V46C244 49.3137 241.314 52 238 52H5.99999C2.68628 52 0 49.3137 0 46V6Z" fill="#2B4350"/>
<path d="M44.25 26H27.75" stroke="white" stroke-width="2" stroke-linecap="round" stroke-linejoin="round"/>
<path d="M34.5 19.25L27.75 26L34.5 32.75" stroke="white" stroke-width="2" stroke-linecap="round" stroke-linejoin="round"/>
<path d="M66.232 21.2V31H64.3V23.048H60.842V31H58.91V21.2H66.232ZM71.7105 21.2C72.6532 21.2 73.4465 21.5173 74.0905 22.152C74.7345 22.7867 75.0565 23.566 75.0565 24.49C75.0565 25.414 74.7345 26.1933 74.0905 26.828C73.4465 27.4627 72.6532 27.78 71.7105 27.78H69.9885V31H68.0565V21.2H71.7105ZM71.7105 25.974C72.1212 25.974 72.4618 25.834 72.7325 25.554C73.0032 25.2647 73.1385 24.91 73.1385 24.49C73.1385 24.0607 73.0032 23.706 72.7325 23.426C72.4618 23.146 72.1212 23.006 71.7105 23.006H69.9885V25.974H71.7105ZM84.4919 29.726C83.5026 30.706 82.2986 31.196 80.8799 31.196C79.4613 31.196 78.2573 30.706 77.2679 29.726C76.2879 28.7367 75.7979 27.528 75.7979 26.1C75.7979 24.672 76.2879 23.468 77.2679 22.488C78.2573 21.4987 79.4613 21.004 80.8799 21.004C82.2986 21.004 83.5026 21.4987 84.4919 22.488C85.4813 23.468 85.9759 24.672 85.9759 26.1C85.9759 27.528 85.4813 28.7367 84.4919 29.726ZM78.6259 28.41C79.2326 29.0073 79.9839 29.306 80.8799 29.306C81.7759 29.306 82.5273 29.0073 83.1339 28.41C83.7406 27.8033 84.0439 27.0333 84.0439 26.1C84.0439 25.1667 83.7406 24.3967 83.1339 23.79C82.5273 23.1833 81.7759 22.88 80.8799 22.88C79.9839 22.88 79.2326 23.1833 78.6259 23.79C78.0193 24.3967 77.7159 25.1667 77.7159 26.1C77.7159 27.0333 78.0193 27.8033 78.6259 28.41ZM94.4283 29.152H95.4783V32.876H93.5463V31H88.1283V32.876H86.1963V29.152H87.1483C87.6897 28.396 87.9603 27.29 87.9603 25.834V21.2H94.4283V29.152ZM89.2203 29.152H92.4963V23.006H89.8923V25.862C89.8923 27.2807 89.6683 28.3773 89.2203 29.152ZM104.863 29.726C103.874 30.706 102.67 31.196 101.251 31.196C99.8324 31.196 98.6284 30.706 97.639 29.726C96.659 28.7367 96.169 27.528 96.169 26.1C96.169 24.672 96.659 23.468 97.639 22.488C98.6284 21.4987 99.8324 21.004 101.251 21.004C102.67 21.004 103.874 21.4987 104.863 22.488C105.852 23.468 106.347 24.672 106.347 26.1C106.347 27.528 105.852 28.7367 104.863 29.726ZM98.997 28.41C99.6037 29.0073 100.355 29.306 101.251 29.306C102.147 29.306 102.898 29.0073 103.505 28.41C104.112 27.8033 104.415 27.0333 104.415 26.1C104.415 25.1667 104.112 24.3967 103.505 23.79C102.898 23.1833 102.147 22.88 101.251 22.88C100.355 22.88 99.6037 23.1833 98.997 23.79C98.3904 24.3967 98.087 25.1667 98.087 26.1C98.087 27.0333 98.3904 27.8033 98.997 28.41ZM106.388 31V29.208C106.967 29.292 107.401 29.1753 107.69 28.858C107.98 28.5407 108.124 27.92 108.124 26.996V21.2H114.788V31H112.87V23.048H110.042V26.94C110.042 27.7893 109.94 28.5033 109.734 29.082C109.529 29.6607 109.244 30.09 108.88 30.37C108.526 30.65 108.143 30.8367 107.732 30.93C107.331 31.0233 106.883 31.0467 106.388 31ZM128.183 31H126.027L122.989 26.534V31H121.057V26.534L118.019 31H115.877L119.279 26.002L116.017 21.2H118.159L121.057 25.568V21.2H122.989V25.568L125.887 21.2H128.043L124.767 26.002L128.183 31ZM134.935 31V25.022L130.735 31H129.265V21.2H131.197V27.192L135.397 21.2H136.867V31H134.935ZM145.167 21.2V23.048H142.521V31H140.589V23.048H137.957V21.2H145.167ZM149.9 24.42C150.843 24.42 151.636 24.7373 152.28 25.372C152.924 26.0067 153.246 26.786 153.246 27.71C153.246 28.634 152.924 29.4133 152.28 30.048C151.636 30.6827 150.843 31 149.9 31H146.246V21.2H148.178V24.42H149.9ZM149.9 29.194C150.311 29.194 150.651 29.054 150.922 28.774C151.193 28.494 151.328 28.1393 151.328 27.71C151.328 27.29 151.193 26.94 150.922 26.66C150.651 26.3707 150.311 26.226 149.9 26.226H148.178V29.194H149.9ZM165.326 21.2V31H163.394V23.048H159.936V31H158.004V21.2H165.326ZM175.396 29.726C174.407 30.706 173.203 31.196 171.784 31.196C170.366 31.196 169.162 30.706 168.172 29.726C167.192 28.7367 166.702 27.528 166.702 26.1C166.702 24.672 167.192 23.468 168.172 22.488C169.162 21.4987 170.366 21.004 171.784 21.004C173.203 21.004 174.407 21.4987 175.396 22.488C176.386 23.468 176.88 24.672 176.88 26.1C176.88 27.528 176.386 28.7367 175.396 29.726ZM169.53 28.41C170.137 29.0073 170.888 29.306 171.784 29.306C172.68 29.306 173.432 29.0073 174.038 28.41C174.645 27.8033 174.948 27.0333 174.948 26.1C174.948 25.1667 174.645 24.3967 174.038 23.79C173.432 23.1833 172.68 22.88 171.784 22.88C170.888 22.88 170.137 23.1833 169.53 23.79C168.924 24.3967 168.62 25.1667 168.62 26.1C168.62 27.0333 168.924 27.8033 169.53 28.41ZM185.896 31H183.67L180.17 26.408V31H178.238V21.2H180.17V25.526L183.53 21.2H185.756L182.13 25.96L185.896 31ZM191.996 21.2H193.928L190.988 28.298C190.204 30.202 188.916 31.1027 187.124 31V29.194C187.647 29.2407 188.067 29.1707 188.384 28.984C188.711 28.788 188.981 28.4753 189.196 28.046L185.99 21.2H187.922L190.064 25.932L191.996 21.2ZM202.294 21.2V31H200.363V23.048H196.905V31H194.973V21.2H202.294ZM211.777 31H209.551L206.051 26.408V31H204.119V21.2H206.051V25.526L209.411 21.2H211.637L208.011 25.96L211.777 31ZM217.877 21.2H219.809L216.869 28.298C216.085 30.202 214.797 31.1027 213.005 31V29.194C213.527 29.2407 213.947 29.1707 214.265 28.984C214.591 28.788 214.862 28.4753 215.077 28.046L211.871 21.2H213.803L215.945 25.932L217.877 21.2Z" fill="white"/>
</svg>
