<svg width="134" height="52" viewBox="0 0 134 52" fill="none" xmlns="http://www.w3.org/2000/svg">
<path d="M0 6C0 2.68629 2.68629 0 6 0H128C131.314 0 134 2.68629 134 6V46C134 49.3137 131.314 52 128 52H6C2.68629 52 0 49.3137 0 46V6Z" fill="#F4A24B"/>
<path d="M25.5 17H27.25L28 20L25.5 17ZM28 20L30.5 30H43.5L46 20H28Z" stroke="white" stroke-width="2" stroke-linecap="round" stroke-linejoin="round"/>
<path d="M30.5 35C31.3284 35 32 34.3284 32 33.5C32 32.6716 31.3284 32 30.5 32C29.6716 32 29 32.6716 29 33.5C29 34.3284 29.6716 35 30.5 35Z" stroke="white" stroke-width="2" stroke-linecap="round" stroke-linejoin="round"/>
<path d="M43.5 35C44.3284 35 45 34.3284 45 33.5C45 32.6716 44.3284 32 43.5 32C42.6716 32 42 32.6716 42 33.5C42 34.3284 42.6716 35 43.5 35Z" stroke="white" stroke-width="2" stroke-linecap="round" stroke-linejoin="round"/>
<path d="M66.568 31H64.342L60.842 26.408V31H58.91V21.2H60.842V25.526L64.202 21.2H66.428L62.802 25.96L66.568 31ZM72.6678 21.2H74.5998L71.6598 28.298C70.8758 30.202 69.5878 31.1027 67.7958 31V29.194C68.3185 29.2407 68.7385 29.1707 69.0558 28.984C69.3825 28.788 69.6532 28.4753 69.8678 28.046L66.6618 21.2H68.5938L70.7358 25.932L72.6678 21.2ZM82.9664 21.2V31H81.0344V23.048H77.5764V31H75.6444V21.2H82.9664ZM90.4609 31V25.022L86.2609 31H84.7909V21.2H86.7229V27.192L90.9229 21.2H92.3929V31H90.4609ZM100.693 21.2V23.048H98.0468V31H96.1148V23.048H93.4828V21.2H100.693ZM105.425 24.42C106.368 24.42 107.161 24.7373 107.805 25.372C108.449 26.0067 108.771 26.786 108.771 27.71C108.771 28.634 108.449 29.4133 107.805 30.048C107.161 30.6827 106.368 31 105.425 31H101.771V21.2H103.703V24.42H105.425ZM105.425 29.194C105.836 29.194 106.177 29.054 106.447 28.774C106.718 28.494 106.853 28.1393 106.853 27.71C106.853 27.29 106.718 26.94 106.447 26.66C106.177 26.3707 105.836 26.226 105.425 26.226H103.703V29.194H105.425Z" fill="white"/>
</svg>
