<svg width="152" height="40" viewBox="0 0 152 40" fill="none" xmlns="http://www.w3.org/2000/svg">
<path d="M0.5 20C0.5 8.95431 9.4543 0 20.5 0H131.5C142.546 0 151.5 8.95431 151.5 20V20C151.5 31.0457 142.546 40 131.5 40H20.5C9.45431 40 0.5 31.0457 0.5 20V20Z" fill="#F2F2F2"/>
<path d="M20.8314 20.0474L28.5 28L36.1686 20.0474C37.0211 19.1633 37.5 17.9643 37.5 16.714C37.5 14.1105 35.4648 12 32.9543 12C31.7487 12 30.5925 12.4967 29.74 13.3807L28.5 14.6667L27.26 13.3807C26.4075 12.4967 25.2513 12 24.0457 12C21.5352 12 19.5 14.1106 19.5 16.714C19.5 17.9643 19.9789 19.1633 20.8314 20.0474Z" stroke="#2D2D2D" stroke-opacity="0.6" stroke-width="1.5" stroke-linecap="round" stroke-linejoin="round"/>
<path d="M51.4883 24V16.2979H54.9419C55.8299 16.2979 56.5013 16.5252 56.9561 16.98C57.2998 17.3237 57.4717 17.757 57.4717 18.2798C57.4717 19.0461 57.1064 19.619 56.376 19.9985C56.8665 20.1632 57.2425 20.3942 57.5039 20.6914C57.7689 20.985 57.9014 21.3843 57.9014 21.8892C57.9014 22.5659 57.6453 23.0869 57.1333 23.4521C56.6213 23.8174 55.9284 24 55.0547 24H51.4883ZM52.8203 22.8022H55.0654C55.5345 22.8022 55.8979 22.7109 56.1558 22.5283C56.4172 22.3421 56.5479 22.0736 56.5479 21.7227C56.5479 21.3932 56.4154 21.139 56.1504 20.96C55.8854 20.7809 55.4897 20.6914 54.9634 20.6914H52.8203V22.8022ZM52.8203 19.5474H54.668C55.1191 19.5474 55.4736 19.4578 55.7314 19.2788C55.9928 19.0962 56.1235 18.8294 56.1235 18.4785C56.1235 18.1742 56.0054 17.936 55.769 17.7642C55.5327 17.5887 55.1997 17.501 54.77 17.501H52.8203V19.5474ZM62.7246 24V16.2979H64.0566V21.9214L67.9507 16.2979H69.2183V24H67.8862V18.3926L64.0029 24H62.7246ZM70.5771 22.8667L71.313 21.9321C72.0256 22.6125 72.8796 22.9526 73.875 22.9526C74.2975 22.9526 74.6538 22.8488 74.9438 22.6411C75.2375 22.4299 75.3843 22.1488 75.3843 21.7979C75.3843 21.4219 75.2231 21.1426 74.9009 20.96C74.5786 20.7738 74.1525 20.6807 73.6226 20.6807H72.7524V19.5581H73.6118C74.106 19.5581 74.4927 19.4614 74.772 19.2681C75.0549 19.0711 75.1963 18.7936 75.1963 18.4355C75.1963 18.1133 75.062 17.8537 74.7935 17.6567C74.5249 17.4562 74.174 17.356 73.7407 17.356C73.2967 17.356 72.901 17.4276 72.5537 17.5708C72.21 17.714 71.8877 17.9289 71.5869 18.2153L70.8618 17.3345C71.2593 16.9549 71.6925 16.6667 72.1616 16.4697C72.6307 16.2692 73.1875 16.1689 73.832 16.1689C74.627 16.1689 75.2769 16.3641 75.7817 16.7544C76.2866 17.1411 76.5391 17.6353 76.5391 18.2368C76.5391 19.0675 76.1022 19.6655 75.2285 20.0308C75.6868 20.1704 76.0521 20.3942 76.3242 20.7021C76.5964 21.0101 76.7324 21.4022 76.7324 21.8784C76.7324 22.5265 76.4728 23.0654 75.9536 23.4951C75.4344 23.9212 74.7523 24.1343 73.9072 24.1343C73.1803 24.1343 72.5537 24.0304 72.0273 23.8228C71.5046 23.6151 71.0212 23.2964 70.5771 22.8667ZM78.3223 24V16.2979H84.064V17.5225H79.665V19.2896H81.8135C82.6693 19.2896 83.3478 19.4954 83.8491 19.9072C84.354 20.319 84.6064 20.8919 84.6064 21.626C84.6064 22.3887 84.3522 22.9759 83.8438 23.3877C83.3353 23.7959 82.6353 24 81.7437 24H78.3223ZM79.665 22.7915H81.4482C82.0605 22.7915 82.5135 22.702 82.8071 22.5229C83.1043 22.3403 83.2529 22.0216 83.2529 21.5669C83.2529 21.1981 83.1187 20.917 82.8501 20.7236C82.5815 20.5303 82.1948 20.4336 81.6899 20.4336H79.665V22.7915ZM86.1318 24V16.2979H89.1719C90.0671 16.2979 90.7778 16.5342 91.3042 17.0068C91.8306 17.4759 92.0938 18.1061 92.0938 18.8975C92.0938 19.4561 91.9523 19.9377 91.6694 20.3423C91.3901 20.7433 91.0213 21.0405 90.563 21.2339C90.1082 21.4272 89.5926 21.5239 89.0161 21.5239H87.4854V24H86.1318ZM87.4854 20.3047H89.0591C89.564 20.3047 89.9668 20.1776 90.2676 19.9233C90.5684 19.6655 90.7188 19.3271 90.7188 18.9082C90.7188 18.4642 90.5701 18.124 90.2729 17.8877C89.9793 17.6514 89.5747 17.5332 89.0591 17.5332H87.4854V20.3047ZM92.8188 24L96.208 16.2441H97.4648L100.849 24H99.4199L98.6411 22.1416H94.9995L94.2046 24H92.8188ZM95.4937 20.9438H98.147L96.8149 17.8608L95.4937 20.9438ZM102.17 24V16.2979H103.523V19.499H107.197V16.2979H108.551V24H107.197V20.7559H103.523V24H102.17ZM110.527 24V16.2979H111.881V19.499H115.555V16.2979H116.908V24H115.555V20.7559H111.881V24H110.527ZM118.546 20.1489C118.546 19.6118 118.647 19.1016 118.847 18.6182C119.048 18.1312 119.323 17.7087 119.674 17.3506C120.025 16.9889 120.453 16.7025 120.958 16.4912C121.463 16.2764 122.004 16.1689 122.58 16.1689C123.16 16.1689 123.701 16.2746 124.202 16.4858C124.703 16.6935 125.128 16.9764 125.475 17.3345C125.826 17.6925 126.1 18.1151 126.297 18.6021C126.497 19.089 126.598 19.6047 126.598 20.1489C126.598 20.686 126.497 21.1981 126.297 21.6851C126.096 22.172 125.821 22.5964 125.47 22.958C125.119 23.3161 124.689 23.6025 124.181 23.8174C123.676 24.0286 123.135 24.1343 122.559 24.1343C121.789 24.1343 121.096 23.9552 120.48 23.5972C119.864 23.2355 119.388 22.7521 119.051 22.147C118.715 21.5418 118.546 20.8758 118.546 20.1489ZM119.964 20.1489C119.964 20.6466 120.074 21.105 120.292 21.5239C120.514 21.9393 120.826 22.2705 121.227 22.5176C121.631 22.7646 122.082 22.8882 122.58 22.8882C123.078 22.8882 123.525 22.7664 123.923 22.5229C124.324 22.2759 124.634 21.9447 124.852 21.5293C125.07 21.1139 125.18 20.6538 125.18 20.1489C125.18 19.6512 125.069 19.1947 124.847 18.7793C124.625 18.3604 124.311 18.0273 123.907 17.7803C123.506 17.5332 123.056 17.4097 122.559 17.4097C122.061 17.4097 121.611 17.5332 121.21 17.7803C120.813 18.0238 120.505 18.3532 120.287 18.7686C120.072 19.1839 119.964 19.644 119.964 20.1489ZM128.23 24V16.2979H133.94V17.5117H129.584V19.5098H133.446V20.7236H129.584V22.7915H133.994V24H128.23Z" fill="#2D2D2D" fill-opacity="0.6"/>
</svg>
