<svg width="40" height="40" viewBox="0 0 40 40" fill="none" xmlns="http://www.w3.org/2000/svg">
<path d="M0 20C0 8.95431 8.95431 0 20 0V0C31.0457 0 40 8.95431 40 20V20C40 31.0457 31.0457 40 20 40V40C8.95431 40 0 31.0457 0 20V20Z" fill="#F2F2F2"/>
<path d="M12.3314 20.0474L20 28L27.6686 20.0474C28.5211 19.1633 29 17.9643 29 16.714C29 14.1105 26.9648 12 24.4543 12C23.2487 12 22.0925 12.4967 21.24 13.3807L20 14.6667L18.76 13.3807C17.9075 12.4967 16.7513 12 15.5457 12C13.0352 12 11 14.1106 11 16.714C11 17.9643 11.4789 19.1633 12.3314 20.0474Z" stroke="#6D7073" stroke-width="1.5" stroke-linecap="round" stroke-linejoin="round"/>
</svg>
