<svg width="40" height="40" viewBox="0 0 40 40" fill="none" xmlns="http://www.w3.org/2000/svg">
<path d="M0 4C0 1.79086 1.79086 0 4 0H36C38.2091 0 40 1.79086 40 4V36C40 38.2091 38.2091 40 36 40H4C1.79086 40 0 38.2091 0 36V4Z" fill="#F4A24B"/>
<path d="M27 22C28.1046 22 29 21.1046 29 20C29 18.8954 28.1046 18 27 18M27 22C25.8954 22 25 21.1046 25 20C25 18.8954 25.8954 18 27 18M27 22V28M27 18V12M20 24C18.8954 24 18 24.8954 18 26C18 27.1046 18.8954 28 20 28C21.1046 28 22 27.1046 22 26C22 24.8954 21.1046 24 20 24ZM20 24V12M13 16C14.1046 16 15 15.1046 15 14C15 12.8954 14.1046 12 13 12C11.8954 12 11 12.8954 11 14C11 15.1046 11.8954 16 13 16ZM13 16V28" stroke="white" stroke-width="1.5" stroke-linecap="round"/>
</svg>
