<svg width="24" height="24" viewBox="0 0 24 24" fill="none" xmlns="http://www.w3.org/2000/svg">
<path d="M22.5 8.5605L21.4395 7.5L18 10.9395L14.5605 7.5L13.5 8.5605L16.9395 12L13.5 15.4387L14.5613 16.5L18 13.0605L21.4402 16.5L22.5 15.4402L19.0605 12L22.5 8.5605Z" fill="white"/>
<path d="M3 2.5C2.46957 2.5 1.96086 2.71071 1.58579 3.08579C1.21071 3.46086 1 3.96957 1 4.5V6.8775C0.999944 7.14024 1.05166 7.40042 1.15219 7.64317C1.25272 7.88593 1.40019 8.10658 1.586 8.29236L7 13.7071V19.5C7 20.0304 7.21071 20.5391 7.58579 20.9142C7.96086 21.2893 8.46957 21.5 9 21.5H12C12.5304 21.5 13.0391 21.2893 13.4142 20.9142C13.7893 20.5391 14 20.0304 14 19.5V17.5H11.5V19H9.5V12.6701L3.5 6.67114V5H17.5V6.5H20V4.5C20 3.96957 19.7893 3.46086 19.4142 3.08579C19.0391 2.71071 18.5304 2.5 18 2.5H3Z" fill="white"/>
</svg>
