<svg width="40" height="40" viewBox="0 0 40 40" fill="none" xmlns="http://www.w3.org/2000/svg">
<path d="M0 20C0 8.95431 8.95431 0 20 0V0C31.0457 0 40 8.95431 40 20V20C40 31.0457 31.0457 40 20 40V40C8.95431 40 0 31.0457 0 20V20Z" fill="#2B4350"/>
<path d="M20 29C24.9706 29 29 24.9706 29 20C29 15.0294 24.9706 11 20 11C15.0294 11 11 15.0294 11 20C11 24.9706 15.0294 29 20 29Z" stroke="white" stroke-width="2" stroke-linecap="round" stroke-linejoin="round"/>
<path d="M20 22.25V21.5C20.5933 21.5 21.1734 21.3241 21.6667 20.9944C22.1601 20.6648 22.5446 20.1962 22.7716 19.6481C22.9987 19.0999 23.0581 18.4967 22.9424 17.9147C22.8266 17.3328 22.5409 16.7982 22.1213 16.3787C21.7018 15.9591 21.1672 15.6734 20.5853 15.5576C20.0033 15.4419 19.4001 15.5013 18.8519 15.7284C18.3038 15.9554 17.8352 16.3399 17.5056 16.8333C17.1759 17.3266 17 17.9067 17 18.5" stroke="white" stroke-width="2" stroke-linecap="round" stroke-linejoin="round"/>
<path d="M20 26.375C20.6213 26.375 21.125 25.8713 21.125 25.25C21.125 24.6287 20.6213 24.125 20 24.125C19.3787 24.125 18.875 24.6287 18.875 25.25C18.875 25.8713 19.3787 26.375 20 26.375Z" fill="white"/>
</svg>
