<svg width="32" height="32" viewBox="0 0 32 32" fill="none" xmlns="http://www.w3.org/2000/svg">
<path d="M0 6C0 2.68629 2.68629 0 6 0H26C29.3137 0 32 2.68629 32 6V26C32 29.3137 29.3137 32 26 32H6C2.68629 32 0 29.3137 0 26V6Z" fill="#FDECDB"/>
<path fill-rule="evenodd" clip-rule="evenodd" d="M16.75 15.25V9.25H15.25V15.25H9.25V16.75H15.25V22.75H16.75V16.75H22.75V15.25H16.75Z" fill="#2D2D2D" fill-opacity="0.5"/>
<mask id="mask0_13336_8866" style="mask-type:alpha" maskUnits="userSpaceOnUse" x="9" y="9" width="14" height="14">
<path fill-rule="evenodd" clip-rule="evenodd" d="M16.75 15.25V9.25H15.25V15.25H9.25V16.75H15.25V22.75H16.75V16.75H22.75V15.25H16.75Z" fill="white"/>
</mask>
<g mask="url(#mask0_13336_8866)">
</g>
</svg>
