<svg width="40" height="40" viewBox="0 0 40 40" fill="none" xmlns="http://www.w3.org/2000/svg">
<path d="M0 20C0 8.95431 8.95431 0 20 0V0C31.0457 0 40 8.95431 40 20V20C40 31.0457 31.0457 40 20 40V40C8.95431 40 0 31.0457 0 20V20Z" fill="#F2F2F2"/>
<path d="M17.5652 23.1606L14.0486 14.2899L10.532 23.1606M14.0487 26.8806C11.8987 26.8806 10.1392 25.1116 10 22.8745H18.0975C17.9583 25.1116 16.1988 26.8806 14.0487 26.8806Z" stroke="#6D7073" stroke-width="1.5" stroke-linejoin="round"/>
<path d="M29.4677 23.1608L25.9511 14.29L22.4345 23.1608M25.9512 26.8807C23.8011 26.8807 22.0417 25.1118 21.9025 22.8746H29.9999C29.8607 25.1118 28.1013 26.8807 25.9512 26.8807Z" stroke="#6D7073" stroke-width="1.5" stroke-linejoin="round"/>
<mask id="path-4-inside-1_13595_10594" fill="white">
<path fill-rule="evenodd" clip-rule="evenodd" d="M21.8838 14.2892C21.7525 15.2599 20.9633 16.0061 20.0094 16.0061C19.0554 16.0061 18.2663 15.2599 18.135 14.2892H13.7877C13.7877 13.8151 14.1721 13.4308 14.6462 13.4308H18.1942C18.427 12.6034 19.1516 12 20.0094 12C20.8672 12 21.5917 12.6034 21.8245 13.4308H25.1021C25.5762 13.4308 25.9605 13.8151 25.9605 14.2892H21.8838ZM21.0914 14.0031C21.0914 14.6352 20.607 15.1477 20.0094 15.1477C19.4118 15.1477 18.9274 14.6352 18.9274 14.0031C18.9274 13.3709 19.4118 12.8585 20.0094 12.8585C20.607 12.8585 21.0914 13.3709 21.0914 14.0031Z"/>
</mask>
<path fill-rule="evenodd" clip-rule="evenodd" d="M21.8838 14.2892C21.7525 15.2599 20.9633 16.0061 20.0094 16.0061C19.0554 16.0061 18.2663 15.2599 18.135 14.2892H13.7877C13.7877 13.8151 14.1721 13.4308 14.6462 13.4308H18.1942C18.427 12.6034 19.1516 12 20.0094 12C20.8672 12 21.5917 12.6034 21.8245 13.4308H25.1021C25.5762 13.4308 25.9605 13.8151 25.9605 14.2892H21.8838ZM21.0914 14.0031C21.0914 14.6352 20.607 15.1477 20.0094 15.1477C19.4118 15.1477 18.9274 14.6352 18.9274 14.0031C18.9274 13.3709 19.4118 12.8585 20.0094 12.8585C20.607 12.8585 21.0914 13.3709 21.0914 14.0031Z" fill="#6D7073"/>
<path d="M21.8838 14.2892V12.7892H20.5729L20.3973 14.0882L21.8838 14.2892ZM18.135 14.2892L19.6215 14.0882L19.4458 12.7892H18.135V14.2892ZM18.1942 13.4308V14.9308H19.3305L19.6382 13.837L18.1942 13.4308ZM21.8245 13.4308L20.3806 13.837L20.6883 14.9308H21.8245V13.4308ZM20.0094 16.6477C21.5137 16.6477 22.5914 15.3831 22.5914 14.0031H19.5914C19.5914 13.8874 19.7002 13.6477 20.0094 13.6477V16.6477ZM17.4274 14.0031C17.4274 15.3831 18.505 16.6477 20.0094 16.6477V13.6477C20.3186 13.6477 20.4274 13.8874 20.4274 14.0031H17.4274ZM20.0094 11.3585C18.505 11.3585 17.4274 12.6231 17.4274 14.0031H20.4274C20.4274 14.1188 20.3186 14.3585 20.0094 14.3585V11.3585ZM22.5914 14.0031C22.5914 12.6231 21.5137 11.3585 20.0094 11.3585V14.3585C19.7002 14.3585 19.5914 14.1188 19.5914 14.0031H22.5914ZM20.0094 17.5061C21.7876 17.5061 23.1485 16.1297 23.3702 14.4902L20.3973 14.0882C20.3565 14.3902 20.1391 14.5061 20.0094 14.5061V17.5061ZM16.6485 14.4902C16.8702 16.1297 18.2312 17.5061 20.0094 17.5061V14.5061C19.8797 14.5061 19.6623 14.3902 19.6215 14.0882L16.6485 14.4902ZM13.7877 15.7892H18.135V12.7892H13.7877V15.7892ZM18.1942 11.9308H14.6462V14.9308H18.1942V11.9308ZM20.0094 10.5C18.413 10.5 17.1464 11.6167 16.7503 13.0245L19.6382 13.837C19.7077 13.59 19.8902 13.5 20.0094 13.5V10.5ZM23.2685 13.0245C22.8724 11.6167 21.6058 10.5 20.0094 10.5V13.5C20.1286 13.5 20.3111 13.59 20.3806 13.837L23.2685 13.0245ZM25.1021 11.9308H21.8245V14.9308H25.1021V11.9308ZM21.8838 15.7892H25.9605V12.7892H21.8838V15.7892ZM25.1021 14.9308C24.7478 14.9308 24.4605 14.6435 24.4605 14.2892H27.4605C27.4605 12.9867 26.4046 11.9308 25.1021 11.9308V14.9308ZM15.2877 14.2892C15.2877 14.6435 15.0005 14.9308 14.6462 14.9308V11.9308C13.3436 11.9308 12.2877 12.9867 12.2877 14.2892H15.2877Z" fill="#6D7073" mask="url(#path-4-inside-1_13595_10594)"/>
</svg>
