<svg width="131" height="40" viewBox="0 0 131 40" fill="none" xmlns="http://www.w3.org/2000/svg">
<path d="M0.5 20C0.5 8.95431 9.45431 0 20.5 0H110.5C121.546 0 130.5 8.95431 130.5 20V20C130.5 31.0457 121.546 40 110.5 40H20.5C9.4543 40 0.5 31.0457 0.5 20V20Z" fill="#F2F2F2"/>
<path d="M26.0652 23.1605L22.5486 14.2898L19.032 23.1605M22.5487 26.8805C20.3987 26.8805 18.6392 25.1115 18.5 22.8744H26.5975C26.4583 25.1115 24.6988 26.8805 22.5487 26.8805Z" stroke="#2D2D2D" stroke-opacity="0.6" stroke-width="1.5" stroke-linejoin="round"/>
<path d="M37.9676 23.1608L34.451 14.29L30.9344 23.1608M34.4511 26.8807C32.301 26.8807 30.5415 25.1118 30.4023 22.8746H38.4998C38.3606 25.1118 36.6011 26.8807 34.4511 26.8807Z" stroke="#2D2D2D" stroke-opacity="0.6" stroke-width="1.5" stroke-linejoin="round"/>
<mask id="path-4-inside-1_13611_11701" fill="white">
<path fill-rule="evenodd" clip-rule="evenodd" d="M30.3836 14.2892C30.2524 15.2599 29.4632 16.0061 28.5093 16.0061C27.5553 16.0061 26.7661 15.2599 26.6349 14.2892H22.2876C22.2876 13.8151 22.6719 13.4308 23.1461 13.4308H26.6941C26.9269 12.6034 27.6515 12 28.5093 12C29.367 12 30.0916 12.6034 30.3244 13.4308H33.602C34.0761 13.4308 34.4604 13.8151 34.4604 14.2892H30.3836ZM29.5913 14.0031C29.5913 14.6352 29.1068 15.1477 28.5093 15.1477C27.9117 15.1477 27.4272 14.6352 27.4272 14.0031C27.4272 13.3709 27.9117 12.8585 28.5093 12.8585C29.1068 12.8585 29.5913 13.3709 29.5913 14.0031Z"/>
</mask>
<path fill-rule="evenodd" clip-rule="evenodd" d="M30.3836 14.2892C30.2524 15.2599 29.4632 16.0061 28.5093 16.0061C27.5553 16.0061 26.7661 15.2599 26.6349 14.2892H22.2876C22.2876 13.8151 22.6719 13.4308 23.1461 13.4308H26.6941C26.9269 12.6034 27.6515 12 28.5093 12C29.367 12 30.0916 12.6034 30.3244 13.4308H33.602C34.0761 13.4308 34.4604 13.8151 34.4604 14.2892H30.3836ZM29.5913 14.0031C29.5913 14.6352 29.1068 15.1477 28.5093 15.1477C27.9117 15.1477 27.4272 14.6352 27.4272 14.0031C27.4272 13.3709 27.9117 12.8585 28.5093 12.8585C29.1068 12.8585 29.5913 13.3709 29.5913 14.0031Z" fill="#2D2D2D" fill-opacity="0.6"/>
<path d="M30.3836 14.2892V12.7892H29.0728L28.8972 14.0882L30.3836 14.2892ZM26.6349 14.2892L28.1214 14.0882L27.9457 12.7892H26.6349V14.2892ZM26.6941 13.4308V14.9308H27.8303L28.1381 13.837L26.6941 13.4308ZM30.3244 13.4308L28.8805 13.837L29.1882 14.9308H30.3244V13.4308ZM28.5093 16.6477C30.0136 16.6477 31.0913 15.3831 31.0913 14.0031H28.0913C28.0913 13.8874 28.2001 13.6477 28.5093 13.6477V16.6477ZM25.9272 14.0031C25.9272 15.3831 27.0049 16.6477 28.5093 16.6477V13.6477C28.8184 13.6477 28.9272 13.8874 28.9272 14.0031H25.9272ZM28.5093 11.3585C27.0049 11.3585 25.9272 12.6231 25.9272 14.0031H28.9272C28.9272 14.1188 28.8184 14.3585 28.5093 14.3585V11.3585ZM31.0913 14.0031C31.0913 12.6231 30.0136 11.3585 28.5093 11.3585V14.3585C28.2001 14.3585 28.0913 14.1188 28.0913 14.0031H31.0913ZM28.5093 17.5061C30.2874 17.5061 31.6484 16.1297 31.8701 14.4902L28.8972 14.0882C28.8563 14.3902 28.639 14.5061 28.5093 14.5061V17.5061ZM25.1484 14.4902C25.3701 16.1297 26.7311 17.5061 28.5093 17.5061V14.5061C28.3796 14.5061 28.1622 14.3902 28.1214 14.0882L25.1484 14.4902ZM22.2876 15.7892H26.6349V12.7892H22.2876V15.7892ZM26.6941 11.9308H23.1461V14.9308H26.6941V11.9308ZM28.5093 10.5C26.9129 10.5 25.6463 11.6167 25.2502 13.0245L28.1381 13.837C28.2076 13.59 28.3901 13.5 28.5093 13.5V10.5ZM31.7683 13.0245C31.3723 11.6167 30.1056 10.5 28.5093 10.5V13.5C28.6285 13.5 28.811 13.59 28.8805 13.837L31.7683 13.0245ZM33.602 11.9308H30.3244V14.9308H33.602V11.9308ZM30.3836 15.7892H34.4604V12.7892H30.3836V15.7892ZM33.602 14.9308C33.2476 14.9308 32.9604 14.6435 32.9604 14.2892H35.9604C35.9604 12.9867 34.9045 11.9308 33.602 11.9308V14.9308ZM23.7876 14.2892C23.7876 14.6435 23.5004 14.9308 23.1461 14.9308V11.9308C21.8435 11.9308 20.7876 12.9867 20.7876 14.2892H23.7876Z" fill="#2D2D2D" fill-opacity="0.6" mask="url(#path-4-inside-1_13611_11701)"/>
<path d="M51.1499 20.1489C51.1499 19.6047 51.2484 19.089 51.4453 18.6021C51.6423 18.1151 51.9126 17.6925 52.2563 17.3345C52.6001 16.9764 53.0208 16.6935 53.5186 16.4858C54.0163 16.2746 54.5498 16.1689 55.1191 16.1689C55.7816 16.1689 56.3473 16.2728 56.8164 16.4805C57.2891 16.6846 57.7277 16.98 58.1323 17.3667L57.2676 18.3657C56.931 18.0578 56.5908 17.8215 56.2471 17.6567C55.9033 17.492 55.5238 17.4097 55.1084 17.4097C54.6286 17.4097 54.1935 17.5314 53.8032 17.7749C53.4129 18.0184 53.1086 18.3496 52.8901 18.7686C52.6753 19.1839 52.5679 19.644 52.5679 20.1489C52.5679 20.9116 52.8096 21.5597 53.293 22.0933C53.7764 22.6232 54.3815 22.8882 55.1084 22.8882C55.5524 22.8882 55.9409 22.8058 56.2739 22.6411C56.6105 22.4764 56.9596 22.2257 57.3213 21.8892L58.1914 22.77C57.9049 23.0672 57.6203 23.3107 57.3374 23.5005C57.0581 23.6903 56.7251 23.8442 56.3384 23.9624C55.9552 24.077 55.5309 24.1343 55.0654 24.1343C54.3314 24.1343 53.6636 23.9588 53.062 23.6079C52.464 23.257 51.995 22.7772 51.6548 22.1685C51.3182 21.5597 51.1499 20.8866 51.1499 20.1489ZM59.6094 24V16.2979H62.6494C63.5446 16.2979 64.2554 16.5342 64.7817 17.0068C65.3081 17.4759 65.5713 18.1061 65.5713 18.8975C65.5713 19.4561 65.4299 19.9377 65.147 20.3423C64.8677 20.7433 64.4989 21.0405 64.0405 21.2339C63.5858 21.4272 63.0701 21.5239 62.4937 21.5239H60.9629V24H59.6094ZM60.9629 20.3047H62.5366C63.0415 20.3047 63.4443 20.1776 63.7451 19.9233C64.0459 19.6655 64.1963 19.3271 64.1963 18.9082C64.1963 18.4642 64.0477 18.124 63.7505 17.8877C63.4569 17.6514 63.0522 17.5332 62.5366 17.5332H60.9629V20.3047ZM66.2964 24L69.6855 16.2441H70.9424L74.3262 24H72.8975L72.1187 22.1416H68.4771L67.6821 24H66.2964ZM68.9712 20.9438H71.6245L70.2925 17.8608L68.9712 20.9438ZM75.6475 24V16.2979H79.1011C79.9891 16.2979 80.6605 16.5252 81.1152 16.98C81.459 17.3237 81.6309 17.757 81.6309 18.2798C81.6309 19.0461 81.2656 19.619 80.5352 19.9985C81.0257 20.1632 81.4017 20.3942 81.6631 20.6914C81.9281 20.985 82.0605 21.3843 82.0605 21.8892C82.0605 22.5659 81.8045 23.0869 81.2925 23.4521C80.7804 23.8174 80.0876 24 79.2139 24H75.6475ZM76.9795 22.8022H79.2246C79.6937 22.8022 80.0571 22.7109 80.3149 22.5283C80.5763 22.3421 80.707 22.0736 80.707 21.7227C80.707 21.3932 80.5745 21.139 80.3096 20.96C80.0446 20.7809 79.6489 20.6914 79.1226 20.6914H76.9795V22.8022ZM76.9795 19.5474H78.8271C79.2783 19.5474 79.6328 19.4578 79.8906 19.2788C80.152 19.0962 80.2827 18.8294 80.2827 18.4785C80.2827 18.1742 80.1646 17.936 79.9282 17.7642C79.6919 17.5887 79.3589 17.501 78.9292 17.501H76.9795V19.5474ZM83.5859 24V16.2979H84.9395V19.499H88.6133V16.2979H89.9668V24H88.6133V20.7559H84.9395V24H83.5859ZM91.9434 24V16.2979H93.2754V21.9214L97.1694 16.2979H98.437V24H97.105V18.3926L93.2217 24H91.9434ZM99.8818 17.5547V16.2979H106.128V17.5547H103.69V24H102.326V17.5547H99.8818ZM107.562 24V16.2979H108.905V19.0693H110.678C111.559 19.0693 112.26 19.2806 112.783 19.7031C113.31 20.1257 113.573 20.7183 113.573 21.481C113.573 22.258 113.311 22.8721 112.789 23.3232C112.266 23.7744 111.559 24 110.667 24H107.562ZM108.905 22.7915H110.646C111.15 22.7915 111.541 22.6787 111.816 22.4531C112.092 22.2275 112.23 21.8999 112.23 21.4702C112.23 21.0763 112.09 20.7756 111.811 20.5679C111.532 20.3566 111.136 20.251 110.624 20.251H108.905V22.7915Z" fill="#2D2D2D" fill-opacity="0.6"/>
</svg>
