<svg width="16" height="17" viewBox="0 0 16 17" fill="none" xmlns="http://www.w3.org/2000/svg">
<path d="M6.37682 10.6071L4.03243 4.6933L1.68803 10.6071M4.0325 13.0871C2.59913 13.0871 1.42614 11.9078 1.33334 10.4163H6.73165C6.63885 11.9078 5.46587 13.0871 4.0325 13.0871Z" stroke="#BDBDBD" stroke-width="1.5" stroke-linejoin="round"/>
<path d="M14.3118 10.6072L11.9674 4.69336L9.62297 10.6072M11.9674 13.0872C10.5341 13.0872 9.36108 11.9078 9.26828 10.4164H14.6666C14.5738 11.9078 13.4008 13.0872 11.9674 13.0872Z" stroke="#BDBDBD" stroke-width="1.5" stroke-linejoin="round"/>
<mask id="path-3-inside-1_13540_2149" fill="white">
<path fill-rule="evenodd" clip-rule="evenodd" d="M9.25588 4.69283C9.16837 5.33997 8.64225 5.83744 8.0063 5.83744C7.37034 5.83744 6.84422 5.33997 6.75671 4.69283H3.85852V4.69283C3.85852 4.37676 4.11475 4.12053 4.43083 4.12053H6.79621C6.9514 3.56892 7.43444 3.16669 8.0063 3.16669C8.57815 3.16669 9.0612 3.56892 9.21639 4.12053H11.4014C11.7175 4.12053 11.9737 4.37676 11.9737 4.69283V4.69283H9.25588ZM8.72765 4.50206C8.72765 4.9235 8.40469 5.26514 8.0063 5.26514C7.6079 5.26514 7.28494 4.9235 7.28494 4.50206C7.28494 4.08063 7.6079 3.73899 8.0063 3.73899C8.40469 3.73899 8.72765 4.08063 8.72765 4.50206Z"/>
</mask>
<path fill-rule="evenodd" clip-rule="evenodd" d="M9.25588 4.69283C9.16837 5.33997 8.64225 5.83744 8.0063 5.83744C7.37034 5.83744 6.84422 5.33997 6.75671 4.69283H3.85852V4.69283C3.85852 4.37676 4.11475 4.12053 4.43083 4.12053H6.79621C6.9514 3.56892 7.43444 3.16669 8.0063 3.16669C8.57815 3.16669 9.0612 3.56892 9.21639 4.12053H11.4014C11.7175 4.12053 11.9737 4.37676 11.9737 4.69283V4.69283H9.25588ZM8.72765 4.50206C8.72765 4.9235 8.40469 5.26514 8.0063 5.26514C7.6079 5.26514 7.28494 4.9235 7.28494 4.50206C7.28494 4.08063 7.6079 3.73899 8.0063 3.73899C8.40469 3.73899 8.72765 4.08063 8.72765 4.50206Z" fill="#BDBDBD"/>
<path d="M9.25588 4.69283V3.19283H7.94506L7.76941 4.49183L9.25588 4.69283ZM6.75671 4.69283L8.24319 4.49183L8.06754 3.19283H6.75671V4.69283ZM6.79621 4.12053V5.62053H7.93243L8.24015 4.52677L6.79621 4.12053ZM9.21639 4.12053L7.77245 4.52677L8.08017 5.62053H9.21639V4.12053ZM8.0063 6.76514C9.31146 6.76514 10.2276 5.67135 10.2276 4.50206H7.22765C7.22765 4.17565 7.49791 3.76514 8.0063 3.76514V6.76514ZM5.78494 4.50206C5.78494 5.67135 6.70113 6.76514 8.0063 6.76514V3.76514C8.51468 3.76514 8.78494 4.17565 8.78494 4.50206H5.78494ZM8.0063 2.23899C6.70113 2.23899 5.78494 3.33278 5.78494 4.50206H8.78494C8.78494 4.82848 8.51468 5.23899 8.0063 5.23899V2.23899ZM10.2276 4.50206C10.2276 3.33278 9.31146 2.23899 8.0063 2.23899V5.23899C7.49792 5.23899 7.22765 4.82848 7.22765 4.50206H10.2276ZM8.0063 7.33744C9.46649 7.33744 10.5644 6.20974 10.7424 4.89383L7.76941 4.49183C7.77236 4.46997 7.7845 4.43783 7.81834 4.40653C7.85494 4.37269 7.92208 4.33744 8.0063 4.33744V7.33744ZM5.27024 4.89383C5.44818 6.20974 6.5461 7.33744 8.0063 7.33744V4.33744C8.09051 4.33744 8.15765 4.37269 8.19425 4.40653C8.2281 4.43783 8.24023 4.46997 8.24319 4.49183L5.27024 4.89383ZM3.85852 6.19283H6.75671V3.19283H3.85852V6.19283ZM6.79621 2.62053H4.43083V5.62053H6.79621V2.62053ZM8.0063 1.66669C6.69586 1.66669 5.67075 2.58228 5.35226 3.71429L8.24015 4.52677C8.23393 4.54888 8.21832 4.57901 8.18271 4.60753C8.14386 4.63864 8.08072 4.66669 8.0063 4.66669V1.66669ZM10.6603 3.71429C10.3418 2.58228 9.31674 1.66669 8.0063 1.66669V4.66669C7.93187 4.66669 7.86873 4.63864 7.82989 4.60753C7.79427 4.57901 7.77867 4.54888 7.77245 4.52677L10.6603 3.71429ZM11.4014 2.62053H9.21639V5.62053H11.4014V2.62053ZM9.25588 6.19283H11.9737V3.19283H9.25588V6.19283ZM11.4014 5.62053C10.8891 5.62053 10.4737 5.20518 10.4737 4.69283H13.4737C13.4737 3.54833 12.5459 2.62053 11.4014 2.62053V5.62053ZM5.35852 4.69283C5.35852 5.20519 4.94318 5.62053 4.43083 5.62053V2.62053C3.28632 2.62053 2.35852 3.54833 2.35852 4.69283H5.35852Z" fill="#BDBDBD" mask="url(#path-3-inside-1_13540_2149)"/>
</svg>
