<svg width="312" height="48" viewBox="0 0 312 48" fill="none" xmlns="http://www.w3.org/2000/svg">
<g clip-path="url(#clip0_13063_11995)">
<path fill-rule="evenodd" clip-rule="evenodd" d="M12.9063 14.0945C13.0244 7.71477 14.8491 0.417674 14.8491 0.417674C8.44337 3.06222 4.81907 8.0594 3.85403 13.9587C3.20137 17.9483 5.96133 22.8358 9.59956 24.0282L9.59908 24C9.59908 20.2353 10.8408 16.7833 12.9063 14.0945ZM10.6734 29.8956C5.55532 26.186 0.55092 20.0898 0.55092 20.0898C-1.01447 27.1079 0.851336 33.0702 4.93909 37.256C7.91269 40.3013 13.9484 40.5381 16.7597 37.4305C14.0369 35.7187 11.8819 33.071 10.6734 29.8956ZM37.3265 18.1044C42.4446 21.814 47.4492 27.9103 47.4492 27.9103C49.0144 20.8919 47.1483 14.9296 43.0608 10.7438C40.0875 7.69841 34.0513 7.46161 31.2402 10.5692C33.9631 12.2813 36.118 14.9291 37.3265 18.1044ZM20.7719 39.1429C15.4541 41.6646 9.16275 43.1162 9.16275 43.1162C14.3307 47.8798 20.2322 48.9796 25.6898 47.191C29.403 45.9738 32.315 41.1256 31.625 37.1798C29.4136 38.6717 26.8005 39.535 24 39.535C22.8902 39.535 21.8098 39.3992 20.7719 39.1429ZM27.2278 8.85707C32.5458 6.3354 38.8372 4.88354 38.8372 4.88354C33.6695 0.12024 27.7677 -0.979625 22.3102 0.808986C18.5971 2.02592 15.6849 6.87465 16.3749 10.8202C18.5861 9.32829 21.1994 8.46496 24 8.46496C25.1097 8.46496 26.1904 8.6005 27.2278 8.85707ZM35.0936 33.9055C34.9755 40.2852 33.1508 47.5821 33.1508 47.5821C39.5568 44.9378 43.1811 39.9406 44.1459 34.0413C44.7985 30.0514 42.0386 25.1639 38.4004 23.9715L38.4008 24C38.4008 27.765 37.1593 31.2169 35.0936 33.9055ZM18.6982 24.9296C18.6359 21.6814 21.2162 20.1562 21.2162 20.1562C20.9431 20.1209 17.9461 20.9144 17.7764 24.8634C17.607 28.8127 19.7493 32.6813 23.6273 33.6029C27.5051 34.5247 35.1062 31.8562 35.2883 23.532C35.4596 15.6957 28.1614 8.90987 20.7838 11.6056C28.0759 10.4825 33.9519 14.9834 34.0592 23.3337C34.1585 31.0472 26.6977 32.9199 23.7662 32.2401C20.8346 31.5606 18.7608 28.1774 18.6982 24.9296ZM27.3361 28.4164C27.3361 28.4164 29.9172 26.8918 29.8556 23.6439C29.794 20.396 27.7211 17.0121 24.7896 16.3315C21.8583 15.6509 14.397 17.521 14.494 25.2347C14.5991 33.5848 20.474 38.0878 27.7663 36.9671C20.388 39.6604 13.0917 32.8723 13.2652 25.0359C13.4495 16.7118 21.0514 14.0458 24.9291 14.9688C28.8067 15.8917 30.948 19.7611 30.7773 23.7104C30.6067 27.6594 27.6094 28.4518 27.3361 28.4164ZM27.2372 20.1969C27.2372 20.1969 25.353 17.7588 22.4105 18.4499C19.4679 19.1411 16.7896 21.9876 16.7353 25.2218C16.6813 28.4559 19.8204 35.9933 26.8179 34.404C34.3934 32.6834 37.3569 25.597 34.9321 18.0937C38.804 25.385 34.0355 34.4167 26.8739 35.7433C19.2667 37.1522 15.3767 29.6193 15.4689 25.3367C15.5613 21.0541 18.6681 18.042 22.2931 17.4616C25.9182 16.881 27.2169 19.901 27.2372 20.1969ZM20.2125 27.1875C20.2125 27.1875 21.4406 30.072 24.4484 30.2342C27.4562 30.3964 30.731 28.4034 31.5665 25.2969C32.402 22.1903 31.1971 14.0299 24.0576 13.5919C16.3286 13.1181 11.752 19.1231 12.2754 27.0493C10.3037 18.92 17.0937 11.546 24.3277 12.2835C32.0121 13.0672 33.9429 21.4349 32.8168 25.5426C31.6907 29.6507 27.962 31.6824 24.3223 31.2212C20.6826 30.76 20.1605 27.4792 20.2125 27.1875Z" fill="#F28F27"/>
<path d="M62.496 30.276H71.936V34.5H58.08V12.1H71.776V16.324H62.496V21.092H70.976V25.252H62.496V30.276ZM83.4008 34.948C80.9048 34.948 78.8568 34.244 77.2568 32.836C75.6568 31.428 74.8568 29.54 74.8568 27.172V12.1H79.2408V26.82C79.2408 27.9933 79.5714 28.9213 80.2328 29.604C80.9154 30.2867 81.9714 30.628 83.4008 30.628C84.8301 30.628 85.8754 30.2867 86.5368 29.604C87.2194 28.9213 87.5608 27.9933 87.5608 26.82V12.1H91.9768V27.172C91.9768 29.54 91.1768 31.428 89.5768 32.836C87.9768 34.244 85.9181 34.948 83.4008 34.948ZM108.243 34.5L103.731 26.724H100.371V34.5H95.955V12.1H104.915C106.984 12.1 108.744 12.8253 110.195 14.276C111.646 15.7267 112.371 17.476 112.371 19.524C112.371 20.9107 111.976 22.2013 111.187 23.396C110.398 24.5693 109.352 25.4547 108.051 26.052L113.011 34.5H108.243ZM100.371 16.228V22.852H104.915C105.747 22.852 106.462 22.532 107.059 21.892C107.656 21.2307 107.955 20.4413 107.955 19.524C107.955 18.6067 107.656 17.828 107.059 17.188C106.462 16.548 105.747 16.228 104.915 16.228H100.371ZM134.209 31.588C131.948 33.828 129.196 34.948 125.953 34.948C122.711 34.948 119.959 33.828 117.697 31.588C115.457 29.3267 114.337 26.564 114.337 23.3C114.337 20.036 115.457 17.284 117.697 15.044C119.959 12.7827 122.711 11.652 125.953 11.652C129.196 11.652 131.948 12.7827 134.209 15.044C136.471 17.284 137.601 20.036 137.601 23.3C137.601 26.564 136.471 29.3267 134.209 31.588ZM120.801 28.58C122.188 29.9453 123.905 30.628 125.953 30.628C128.001 30.628 129.719 29.9453 131.105 28.58C132.492 27.1933 133.185 25.4333 133.185 23.3C133.185 21.1667 132.492 19.4067 131.105 18.02C129.719 16.6333 128.001 15.94 125.953 15.94C123.905 15.94 122.188 16.6333 120.801 18.02C119.415 19.4067 118.721 21.1667 118.721 23.3C118.721 25.4333 119.415 27.1933 120.801 28.58ZM148.225 34.884C146.177 34.884 144.417 34.404 142.945 33.444C141.494 32.4627 140.481 31.1187 139.905 29.412L141.825 28.292C142.23 29.6787 142.977 30.7667 144.065 31.556C145.153 32.324 146.55 32.708 148.257 32.708C149.921 32.708 151.212 32.3453 152.129 31.62C153.068 30.8733 153.537 29.892 153.537 28.676C153.537 27.5027 153.11 26.6173 152.257 26.02C151.404 25.4227 149.996 24.804 148.033 24.164C145.708 23.396 144.172 22.7773 143.425 22.308C141.718 21.284 140.865 19.8013 140.865 17.86C140.865 15.9613 141.526 14.468 142.849 13.38C144.172 12.2707 145.804 11.716 147.745 11.716C149.494 11.716 151.009 12.1747 152.289 13.092C153.569 13.988 154.518 15.14 155.137 16.548L153.249 17.604C152.225 15.1293 150.39 13.892 147.745 13.892C146.358 13.892 145.238 14.2333 144.385 14.916C143.532 15.5987 143.105 16.548 143.105 17.764C143.105 18.8733 143.489 19.7053 144.257 20.26C145.025 20.8147 146.294 21.38 148.065 21.956C148.876 22.2333 149.452 22.436 149.793 22.564C150.156 22.6707 150.668 22.8627 151.329 23.14C152.012 23.396 152.513 23.6307 152.833 23.844C153.153 24.036 153.537 24.3133 153.985 24.676C154.454 25.0173 154.785 25.3693 154.977 25.732C155.19 26.0733 155.372 26.5 155.521 27.012C155.692 27.5027 155.777 28.036 155.777 28.612C155.777 30.5107 155.084 32.036 153.697 33.188C152.31 34.3187 150.486 34.884 148.225 34.884ZM174.222 34.5L172.142 28.996H161.518L159.438 34.5H157.07L165.678 12.1H167.982L176.59 34.5H174.222ZM162.318 26.884H171.342L166.83 14.884L162.318 26.884ZM193.866 12.1H196.106V34.5H194.186L181.706 16.26V34.5H179.466V12.1H181.386L193.866 30.34V12.1ZM209.856 12.1C212.907 12.1 215.424 13.188 217.408 15.364C219.414 17.5187 220.416 20.164 220.416 23.3C220.416 26.436 219.414 29.092 217.408 31.268C215.424 33.4227 212.907 34.5 209.856 34.5H201.216V12.1H209.856ZM209.856 32.388C212.31 32.388 214.315 31.5133 215.872 29.764C217.451 28.0147 218.24 25.86 218.24 23.3C218.24 20.74 217.451 18.5853 215.872 16.836C214.315 15.0867 212.31 14.212 209.856 14.212H203.456V32.388H209.856ZM226.488 32.388H237.368V34.5H224.248V12.1H237.208V14.212H226.488V22.148H236.408V24.26H226.488V32.388ZM248.256 34.884C246.208 34.884 244.448 34.404 242.976 33.444C241.526 32.4627 240.512 31.1187 239.936 29.412L241.856 28.292C242.262 29.6787 243.008 30.7667 244.096 31.556C245.184 32.324 246.582 32.708 248.288 32.708C249.952 32.708 251.243 32.3453 252.16 31.62C253.099 30.8733 253.568 29.892 253.568 28.676C253.568 27.5027 253.142 26.6173 252.288 26.02C251.435 25.4227 250.027 24.804 248.064 24.164C245.739 23.396 244.203 22.7773 243.456 22.308C241.75 21.284 240.896 19.8013 240.896 17.86C240.896 15.9613 241.558 14.468 242.88 13.38C244.203 12.2707 245.835 11.716 247.776 11.716C249.526 11.716 251.04 12.1747 252.32 13.092C253.6 13.988 254.55 15.14 255.168 16.548L253.28 17.604C252.256 15.1293 250.422 13.892 247.776 13.892C246.39 13.892 245.27 14.2333 244.416 14.916C243.563 15.5987 243.136 16.548 243.136 17.764C243.136 18.8733 243.52 19.7053 244.288 20.26C245.056 20.8147 246.326 21.38 248.096 21.956C248.907 22.2333 249.483 22.436 249.824 22.564C250.187 22.6707 250.699 22.8627 251.36 23.14C252.043 23.396 252.544 23.6307 252.864 23.844C253.184 24.036 253.568 24.3133 254.016 24.676C254.486 25.0173 254.816 25.3693 255.008 25.732C255.222 26.0733 255.403 26.5 255.552 27.012C255.723 27.5027 255.808 28.036 255.808 28.612C255.808 30.5107 255.115 32.036 253.728 33.188C252.342 34.3187 250.518 34.884 248.256 34.884ZM259.498 12.1H261.738V34.5H259.498V12.1ZM288.281 23.844V24.996C288.281 27.7693 287.289 30.116 285.305 32.036C283.321 33.9347 280.665 34.884 277.337 34.884C273.945 34.884 271.139 33.764 268.921 31.524C266.702 29.284 265.593 26.5427 265.593 23.3C265.593 20.0573 266.702 17.316 268.921 15.076C271.139 12.836 273.945 11.716 277.337 11.716C279.406 11.716 281.305 12.2173 283.033 13.22C284.761 14.2227 286.094 15.556 287.033 17.22L285.049 18.372C284.345 17.0067 283.299 15.9187 281.913 15.108C280.526 14.2973 279.001 13.892 277.337 13.892C274.542 13.892 272.259 14.7987 270.489 16.612C268.718 18.4253 267.833 20.6547 267.833 23.3C267.833 25.9453 268.718 28.1747 270.489 29.988C272.259 31.8013 274.542 32.708 277.337 32.708C279.854 32.708 281.87 32.0787 283.385 30.82C284.899 29.54 285.763 27.9187 285.977 25.956H277.081V23.844H288.281ZM306.523 12.1H308.763V34.5H306.843L294.363 16.26V34.5H292.123V12.1H294.043L306.523 30.34V12.1Z" fill="#2A2D3D"/>
</g>
<defs>
<clipPath id="clip0_13063_11995">
<rect width="312" height="48" fill="white"/>
</clipPath>
</defs>
</svg>
