<svg width="22" height="22" viewBox="0 0 22 22" fill="none" xmlns="http://www.w3.org/2000/svg">
<path fill-rule="evenodd" clip-rule="evenodd" d="M16.25 9.49998C16.25 10.3864 16.0754 11.2641 15.7361 12.0831C15.397 12.902 14.8997 13.6461 14.273 14.273C13.6462 14.8997 12.902 15.3969 12.0831 15.7362C11.2642 16.0754 10.3864 16.25 9.49999 16.25C8.61356 16.25 7.73582 16.0754 6.91687 15.7362C6.09793 15.3969 5.35381 14.8997 4.72702 14.273C4.10021 13.6461 3.60302 12.902 3.2638 12.0831C2.92457 11.2641 2.74999 10.3864 2.74999 9.49998C2.74999 7.70976 3.46114 5.99287 4.72702 4.72701C5.99288 3.46113 7.70977 2.74998 9.49999 2.74998C11.2902 2.74998 13.0071 3.46113 14.273 4.72701C15.5389 5.99287 16.25 7.70976 16.25 9.49998ZM15.02 16.61C13.2116 18.014 10.936 18.6759 8.65669 18.4611C6.37733 18.2465 4.2655 17.1711 2.75111 15.4541C1.23671 13.737 0.433611 11.5074 0.505281 9.2191C0.576966 6.93078 1.51804 4.75578 3.13691 3.1369C4.7558 1.51803 6.93079 0.576955 9.21911 0.50527C11.5074 0.433596 13.7371 1.2367 15.4541 2.7511C17.1712 4.26549 18.2465 6.37732 18.4612 8.65668C18.676 10.936 18.014 13.2115 16.61 15.02L21.17 19.58C21.2806 19.683 21.3692 19.8072 21.4307 19.9452C21.4922 20.0832 21.5252 20.2322 21.5279 20.3832C21.5306 20.5343 21.5027 20.6843 21.4462 20.8244C21.3896 20.9645 21.3053 21.0917 21.1985 21.1985C21.0917 21.3054 20.9645 21.3896 20.8244 21.4461C20.6843 21.5027 20.5343 21.5306 20.3833 21.5279C20.2322 21.5252 20.0831 21.4922 19.9453 21.4307C19.8073 21.3692 19.6831 21.2805 19.58 21.17L15.02 16.61Z" fill="white"/>
</svg>
