<svg width="20" height="20" viewBox="0 0 20 20" fill="none" xmlns="http://www.w3.org/2000/svg">
<circle cx="10" cy="10" r="7.5" fill="#FDFDFE"/>
<path d="M12.9806 5.3208H7.01972C6.06827 5.3208 5.29419 6.09488 5.29419 7.04633V13.0072C5.29419 13.9587 6.06827 14.733 7.01972 14.733H12.9806C13.9321 14.733 14.7064 13.9589 14.7064 13.0072V7.04633C14.7064 6.09488 13.9323 5.3208 12.9806 5.3208ZM10.0002 13.1253C8.29181 13.1253 6.90185 11.7354 6.90185 10.0268C6.90185 8.31842 8.29181 6.92846 10.0002 6.92846C11.7088 6.92846 13.0987 8.31842 13.0987 10.0268C13.0987 11.7352 11.7085 13.1253 10.0002 13.1253ZM13.1983 7.56907C12.7939 7.56907 12.465 7.24018 12.465 6.83599C12.465 6.43179 12.7939 6.1029 13.1983 6.1029C13.6025 6.1029 13.9314 6.43179 13.9314 6.83599C13.9314 7.24018 13.6025 7.56907 13.1983 7.56907Z" fill="url(#paint0_linear_13387_12645)"/>
<path d="M10.0002 8.23779C9.01399 8.23779 8.21094 9.04039 8.21094 10.0266C8.21094 11.0133 9.01399 11.8161 10.0002 11.8161C10.9868 11.8161 11.7892 11.0133 11.7892 10.0266C11.7892 9.04062 10.9866 8.23779 10.0002 8.23779Z" fill="#E84147"/>
<path d="M10 0C4.47737 0 0 4.47737 0 10C0 15.5226 4.47737 20 10 20C15.5226 20 20 15.5226 20 10C20 4.47737 15.5226 0 10 0ZM16.0153 13.0074C16.0153 14.681 14.6541 16.0422 12.9805 16.0422H7.01954C5.34615 16.0422 3.98471 14.681 3.98471 13.0074V7.0465C3.98471 5.37311 5.34615 4.01168 7.01954 4.01168H12.9805C14.6541 4.01168 16.0153 5.37311 16.0153 7.0465V13.0074Z" fill="url(#paint1_radial_13387_12645)"/>
<defs>
<linearGradient id="paint0_linear_13387_12645" x1="6.25041" y1="14.9999" x2="14.1671" y2="4.99986" gradientUnits="userSpaceOnUse">
<stop stop-color="#E18129"/>
<stop offset="0.271436" stop-color="#F7591A"/>
<stop offset="0.953125" stop-color="#C106AF"/>
</linearGradient>
<radialGradient id="paint1_radial_13387_12645" cx="0" cy="0" r="1" gradientUnits="userSpaceOnUse" gradientTransform="translate(5.83333 17.0833) rotate(-48.8141) scale(17.7169)">
<stop stop-color="#F5DF82"/>
<stop offset="0.258556" stop-color="#DE7627"/>
<stop offset="0.489576" stop-color="#D50453"/>
<stop offset="0.716605" stop-color="#C301A5"/>
<stop offset="0.979167" stop-color="#3333E8"/>
</radialGradient>
</defs>
</svg>
