<svg width="205" height="32" viewBox="0 0 205 32" fill="none" xmlns="http://www.w3.org/2000/svg">
<path fill-rule="evenodd" clip-rule="evenodd" d="M8.60423 9.39632C8.68293 5.14318 9.89943 0.278449 9.89943 0.278449C5.62891 2.04148 3.21271 5.37293 2.56935 9.30578C2.13425 11.9655 3.97422 15.2239 6.39971 16.0188L6.39938 16C6.39938 13.4902 7.22722 11.1889 8.60423 9.39632ZM7.11559 19.9304C3.70355 17.4573 0.36728 13.3932 0.36728 13.3932C-0.676312 18.0719 0.567558 22.0468 3.29273 24.8373C5.27513 26.8676 9.29892 27.0254 11.1731 24.9537C9.35791 23.8124 7.92126 22.0473 7.11559 19.9304ZM24.8844 12.0696C28.2964 14.5427 31.6328 18.6069 31.6328 18.6069C32.6763 13.9279 31.4322 9.95306 28.7072 7.16251C26.725 5.13227 22.7009 4.97441 20.8268 7.04613C22.642 8.18756 24.0787 9.95271 24.8844 12.0696ZM13.8479 26.0953C10.3028 27.7764 6.1085 28.7441 6.1085 28.7441C9.55379 31.9198 13.4881 32.6531 17.1265 31.4607C19.602 30.6492 21.5434 27.4171 21.0833 24.7865C19.609 25.7811 17.867 26.3567 16 26.3567C15.2601 26.3567 14.5399 26.2662 13.8479 26.0953ZM18.1518 5.90471C21.6972 4.2236 25.8914 3.25569 25.8914 3.25569C22.4463 0.0801602 18.5118 -0.653083 14.8734 0.539324C12.3981 1.35061 10.4566 4.5831 10.9166 7.2135C12.3907 6.21886 14.1329 5.64331 16 5.64331C16.7398 5.64331 17.4603 5.73367 18.1518 5.90471ZM23.3957 22.6037C23.317 26.8568 22.1005 31.7214 22.1005 31.7214C26.3712 29.9585 28.7874 26.6271 29.4306 22.6942C29.8657 20.0343 28.0257 16.776 25.6002 15.981L25.6006 16C25.6006 18.51 24.7729 20.8113 23.3957 22.6037ZM12.4655 16.6197C12.4239 14.4543 14.1441 13.4375 14.1441 13.4375C13.9621 13.4139 11.964 13.9429 11.851 16.5756C11.738 19.2085 13.1662 21.7875 15.7515 22.4019C18.3367 23.0165 23.4041 21.2375 23.5255 15.688C23.6398 10.4638 18.7743 5.93992 13.8558 7.73705C18.7172 6.98835 22.6346 9.98896 22.7062 15.5558C22.7723 20.6981 17.7985 21.9466 15.8441 21.4934C13.8897 21.0404 12.5072 18.785 12.4655 16.6197ZM18.2241 18.9443C18.2241 18.9443 19.9448 17.9278 19.9037 15.7626C19.8626 13.5974 18.4808 11.3414 16.5264 10.8877C14.5722 10.434 9.598 11.6807 9.66269 16.8232C9.73277 22.3898 13.6493 25.3919 18.5109 24.6447C13.592 26.4403 8.72779 21.9148 8.8435 16.6906C8.96637 11.1412 14.0342 9.36389 16.6194 9.97917C19.2045 10.5944 20.632 13.1741 20.5182 15.8069C20.4045 18.4396 18.4063 18.9678 18.2241 18.9443ZM18.1581 13.4646C18.1581 13.4646 16.902 11.8392 14.9403 12.3C12.9786 12.7607 11.1931 14.6584 11.1569 16.8145C11.1209 18.9706 13.2136 23.9955 17.8786 22.936C22.9289 21.7889 24.9046 17.0647 23.2881 12.0625C25.8693 16.9233 22.6903 22.9444 17.916 23.8289C12.8445 24.7681 10.2512 19.7462 10.3126 16.8912C10.3742 14.0361 12.4454 12.028 14.8621 11.6411C17.2788 11.254 18.1446 13.2674 18.1581 13.4646ZM13.475 18.125C13.475 18.125 14.2937 20.048 16.299 20.1561C18.3042 20.2642 20.4873 18.9356 21.0443 16.8645C21.6013 14.7935 20.7981 9.35324 16.0384 9.06124C10.8858 8.74534 7.83468 12.7487 8.18357 18.0329C6.86914 12.6133 11.3958 7.69726 16.2185 8.18895C21.3414 8.71141 22.6286 14.2899 21.8779 17.0284C21.1271 19.7671 18.6413 21.1215 16.2149 20.8141C13.7884 20.5066 13.4403 18.3194 13.475 18.125Z" fill="#AAB4B9"/>
<path d="M40.2773 20.6506H46.5707V23.4666H37.3333V8.53329H46.464V11.3493H40.2773V14.528H45.9307V17.3013H40.2773V20.6506Z" fill="#D5D9DC"/>
<path d="M54.2138 23.7653C52.5498 23.7653 51.1845 23.296 50.1178 22.3573C49.0512 21.4186 48.5178 20.16 48.5178 18.5813V8.53329H51.4405V18.3466C51.4405 19.1288 51.6609 19.7475 52.1018 20.2026C52.5569 20.6577 53.2609 20.8853 54.2138 20.8853C55.1667 20.8853 55.8636 20.6577 56.3045 20.2026C56.7596 19.7475 56.9872 19.1288 56.9872 18.3466V8.53329H59.9312V18.5813C59.9312 20.16 59.3978 21.4186 58.3312 22.3573C57.2645 23.296 55.892 23.7653 54.2138 23.7653Z" fill="#D5D9DC"/>
<path d="M70.7753 23.4666L67.7673 18.2826H65.5273V23.4666H62.5833V8.53329H68.5567C69.9362 8.53329 71.1095 9.01684 72.0767 9.98395C73.0438 10.9511 73.5273 12.1173 73.5273 13.4826C73.5273 14.4071 73.2642 15.2675 72.738 16.064C72.2118 16.8462 71.5149 17.4364 70.6473 17.8346L73.954 23.4666H70.7753ZM65.5273 11.2853V15.7013H68.5567C69.1113 15.7013 69.5878 15.488 69.986 15.0613C70.3842 14.6204 70.5833 14.0942 70.5833 13.4826C70.5833 12.8711 70.3842 12.352 69.986 11.9253C69.5878 11.4986 69.1113 11.2853 68.5567 11.2853H65.5273Z" fill="#D5D9DC"/>
<path d="M88.0862 21.5253C86.5786 23.0186 84.7439 23.7653 82.5822 23.7653C80.4204 23.7653 78.5857 23.0186 77.0782 21.5253C75.5848 20.0177 74.8382 18.176 74.8382 16C74.8382 13.824 75.5848 11.9893 77.0782 10.496C78.5857 8.9884 80.4204 8.23462 82.5822 8.23462C84.7439 8.23462 86.5786 8.9884 88.0862 10.496C89.5937 11.9893 90.3475 13.824 90.3475 16C90.3475 18.176 89.5937 20.0177 88.0862 21.5253ZM79.1475 19.52C80.0719 20.4302 81.2168 20.8853 82.5822 20.8853C83.9475 20.8853 85.0924 20.4302 86.0168 19.52C86.9413 18.5955 87.4035 17.4222 87.4035 16C87.4035 14.5777 86.9413 13.4044 86.0168 12.48C85.0924 11.5555 83.9475 11.0933 82.5822 11.0933C81.2168 11.0933 80.0719 11.5555 79.1475 12.48C78.223 13.4044 77.7608 14.5777 77.7608 16C77.7608 17.4222 78.223 18.5955 79.1475 19.52Z" fill="#D5D9DC"/>
<path d="M97.43 23.7226C96.0647 23.7226 94.8913 23.4026 93.91 22.7626C92.9429 22.1084 92.2673 21.2124 91.8833 20.0746L93.1633 19.328C93.4335 20.2524 93.9313 20.9777 94.6567 21.504C95.382 22.016 96.3135 22.272 97.4513 22.272C98.5607 22.272 99.4211 22.0302 100.033 21.5466C100.658 21.0488 100.971 20.3946 100.971 19.584C100.971 18.8017 100.687 18.2115 100.118 17.8133C99.5491 17.4151 98.6104 17.0026 97.302 16.576C95.7518 16.064 94.7278 15.6515 94.23 15.3386C93.0922 14.656 92.5233 13.6675 92.5233 12.3733C92.5233 11.1075 92.9642 10.112 93.846 9.38662C94.7278 8.64706 95.8158 8.27729 97.11 8.27729C98.2762 8.27729 99.286 8.58306 100.139 9.19462C100.993 9.79195 101.626 10.56 102.038 11.4986L100.779 12.2026C100.097 10.5528 98.8735 9.72795 97.11 9.72795C96.1855 9.72795 95.4389 9.95551 94.87 10.4106C94.3011 10.8657 94.0167 11.4986 94.0167 12.3093C94.0167 13.0488 94.2727 13.6035 94.7847 13.9733C95.2967 14.3431 96.1429 14.72 97.3233 15.104C97.8638 15.2888 98.2478 15.424 98.4753 15.5093C98.7171 15.5804 99.0584 15.7084 99.4993 15.8933C99.9544 16.064 100.289 16.2204 100.502 16.3626C100.715 16.4906 100.971 16.6755 101.27 16.9173C101.583 17.1448 101.803 17.3795 101.931 17.6213C102.074 17.8488 102.194 18.1333 102.294 18.4746C102.408 18.8017 102.465 19.1573 102.465 19.5413C102.465 20.8071 102.002 21.824 101.078 22.592C100.154 23.3457 98.9375 23.7226 97.43 23.7226Z" fill="#D5D9DC"/>
<path d="M114.761 23.4666L113.375 19.7973H106.292L104.905 23.4666H103.327L109.065 8.53329H110.601L116.34 23.4666H114.761ZM106.825 18.3893H112.841L109.833 10.3893L106.825 18.3893Z" fill="#D5D9DC"/>
<path d="M127.857 8.53329H129.351V23.4666H128.071L119.751 11.3066V23.4666H118.257V8.53329H119.537L127.857 20.6933V8.53329Z" fill="#D5D9DC"/>
<path d="M138.517 8.53329C140.551 8.53329 142.229 9.25862 143.552 10.7093C144.889 12.1457 145.557 13.9093 145.557 16C145.557 18.0906 144.889 19.8613 143.552 21.312C142.229 22.7484 140.551 23.4666 138.517 23.4666H132.757V8.53329H138.517ZM138.517 22.0586C140.153 22.0586 141.49 21.4755 142.528 20.3093C143.581 19.1431 144.107 17.7066 144.107 16C144.107 14.2933 143.581 12.8568 142.528 11.6906C141.49 10.5244 140.153 9.94129 138.517 9.94129H134.251V22.0586H138.517Z" fill="#D5D9DC"/>
<path d="M149.605 22.0586H156.858V23.4666H148.112V8.53329H156.752V9.94129H149.605V15.232H156.218V16.64H149.605V22.0586Z" fill="#D5D9DC"/>
<path d="M164.117 23.7226C162.752 23.7226 161.579 23.4026 160.597 22.7626C159.63 22.1084 158.955 21.2124 158.571 20.0746L159.851 19.328C160.121 20.2524 160.619 20.9777 161.344 21.504C162.069 22.016 163.001 22.272 164.139 22.272C165.248 22.272 166.109 22.0302 166.72 21.5466C167.346 21.0488 167.659 20.3946 167.659 19.584C167.659 18.8017 167.374 18.2115 166.805 17.8133C166.237 17.4151 165.298 17.0026 163.989 16.576C162.439 16.064 161.415 15.6515 160.917 15.3386C159.78 14.656 159.211 13.6675 159.211 12.3733C159.211 11.1075 159.652 10.112 160.533 9.38662C161.415 8.64706 162.503 8.27729 163.797 8.27729C164.964 8.27729 165.973 8.58306 166.827 9.19462C167.68 9.79195 168.313 10.56 168.725 11.4986L167.467 12.2026C166.784 10.5528 165.561 9.72795 163.797 9.72795C162.873 9.72795 162.126 9.95551 161.557 10.4106C160.989 10.8657 160.704 11.4986 160.704 12.3093C160.704 13.0488 160.96 13.6035 161.472 13.9733C161.984 14.3431 162.83 14.72 164.011 15.104C164.551 15.2888 164.935 15.424 165.163 15.5093C165.405 15.5804 165.746 15.7084 166.187 15.8933C166.642 16.064 166.976 16.2204 167.189 16.3626C167.403 16.4906 167.659 16.6755 167.957 16.9173C168.27 17.1448 168.491 17.3795 168.619 17.6213C168.761 17.8488 168.882 18.1333 168.981 18.4746C169.095 18.8017 169.152 19.1573 169.152 19.5413C169.152 20.8071 168.69 21.824 167.765 22.592C166.841 23.3457 165.625 23.7226 164.117 23.7226Z" fill="#D5D9DC"/>
<path d="M171.612 8.53329H173.105V23.4666H171.612V8.53329Z" fill="#D5D9DC"/>
<path d="M190.8 16.3626V17.1306C190.8 18.9795 190.139 20.544 188.816 21.824C187.494 23.0897 185.723 23.7226 183.504 23.7226C181.243 23.7226 179.373 22.976 177.894 21.4826C176.415 19.9893 175.675 18.1617 175.675 16C175.675 13.8382 176.415 12.0106 177.894 10.5173C179.373 9.02395 181.243 8.27729 183.504 8.27729C184.884 8.27729 186.15 8.61151 187.302 9.27995C188.454 9.9484 189.343 10.8373 189.968 11.9466L188.646 12.7146C188.176 11.8044 187.479 11.0791 186.555 10.5386C185.631 9.99817 184.614 9.72795 183.504 9.72795C181.641 9.72795 180.119 10.3324 178.939 11.5413C177.759 12.7502 177.168 14.2364 177.168 16C177.168 17.7635 177.759 19.2497 178.939 20.4586C180.119 21.6675 181.641 22.272 183.504 22.272C185.183 22.272 186.527 21.8524 187.536 21.0133C188.546 20.16 189.122 19.0791 189.264 17.7706H183.334V16.3626H190.8Z" fill="#D5D9DC"/>
<path d="M202.962 8.53329H204.455V23.4666H203.175L194.855 11.3066V23.4666H193.362V8.53329H194.642L202.962 20.6933V8.53329Z" fill="#D5D9DC"/>
</svg>
