<svg width="41" height="40" viewBox="0 0 41 40" fill="none" xmlns="http://www.w3.org/2000/svg">
<path d="M0.998474 4C0.998474 1.79086 2.78934 0 4.99847 0H36.9985C39.2076 0 40.9985 1.79086 40.9985 4V36C40.9985 38.2091 39.2076 40 36.9985 40H4.99848C2.78934 40 0.998474 38.2091 0.998474 36V4Z" fill="#F4A24B"/>
<path d="M23.9985 20H25.9985C25.9985 17.24 23.7585 15 20.9985 15V17C22.6585 17 23.9985 18.34 23.9985 20ZM27.9985 20H29.9985C29.9985 15.03 25.9685 11 20.9985 11V13C24.8685 13 27.9985 16.13 27.9985 20ZM28.9985 23.5C27.7485 23.5 26.5485 23.3 25.4285 22.93C25.3285 22.9 25.2185 22.88 25.1185 22.88C24.8585 22.88 24.6085 22.98 24.4085 23.17L22.2085 25.37C19.3785 23.93 17.0585 21.62 15.6185 18.78L17.8185 16.57C18.0985 16.31 18.1785 15.92 18.0685 15.57C17.6985 14.45 17.4985 13.25 17.4985 12C17.4985 11.45 17.0485 11 16.4985 11H12.9985C12.4485 11 11.9985 11.45 11.9985 12C11.9985 21.39 19.6085 29 28.9985 29C29.5485 29 29.9985 28.55 29.9985 28V24.5C29.9985 23.95 29.5485 23.5 28.9985 23.5ZM14.0285 13H15.5285C15.5985 13.88 15.7485 14.75 15.9785 15.58L14.7785 16.79C14.3785 15.58 14.1185 14.32 14.0285 13ZM27.9985 26.97C26.6785 26.88 25.3985 26.62 24.1985 26.21L25.3985 25.01C26.2485 25.25 27.1185 25.4 27.9985 25.46V26.97Z" fill="white"/>
</svg>
