<svg width="186" height="40" viewBox="0 0 186 40" fill="none" xmlns="http://www.w3.org/2000/svg">
<path d="M0.998535 4C0.998535 1.79086 2.7894 0 4.99854 0H181.999C184.208 0 185.999 1.79086 185.999 4V36C185.999 38.2091 184.208 40 181.999 40H4.99854C2.7894 40 0.998535 38.2091 0.998535 36V4Z" fill="#F4A24B"/>
<path d="M31.9985 20H33.9985C33.9985 17.24 31.7585 15 28.9985 15V17C30.6585 17 31.9985 18.34 31.9985 20ZM35.9985 20H37.9985C37.9985 15.03 33.9685 11 28.9985 11V13C32.8685 13 35.9985 16.13 35.9985 20ZM36.9985 23.5C35.7485 23.5 34.5485 23.3 33.4285 22.93C33.3285 22.9 33.2185 22.88 33.1185 22.88C32.8585 22.88 32.6085 22.98 32.4085 23.17L30.2085 25.37C27.3785 23.93 25.0585 21.62 23.6185 18.78L25.8185 16.57C26.0985 16.31 26.1785 15.92 26.0685 15.57C25.6985 14.45 25.4985 13.25 25.4985 12C25.4985 11.45 25.0485 11 24.4985 11H20.9985C20.4485 11 19.9985 11.45 19.9985 12C19.9985 21.39 27.6085 29 36.9985 29C37.5485 29 37.9985 28.55 37.9985 28V24.5C37.9985 23.95 37.5485 23.5 36.9985 23.5ZM22.0285 13H23.5285C23.5985 13.88 23.7485 14.75 23.9785 15.58L22.7785 16.79C22.3785 15.58 22.1185 14.32 22.0285 13ZM35.9985 26.97C34.6785 26.88 33.3985 26.62 32.1985 26.21L33.3985 25.01C34.2485 25.25 35.1185 25.4 35.9985 25.46V26.97Z" fill="white"/>
<path d="M60.1545 23.726C59.1652 24.706 57.9612 25.196 56.5425 25.196C55.1239 25.196 53.9199 24.706 52.9305 23.726C51.9505 22.7367 51.4605 21.528 51.4605 20.1C51.4605 18.672 51.9505 17.468 52.9305 16.488C53.9199 15.4987 55.1239 15.004 56.5425 15.004C57.9612 15.004 59.1652 15.4987 60.1545 16.488C61.1439 17.468 61.6385 18.672 61.6385 20.1C61.6385 21.528 61.1439 22.7367 60.1545 23.726ZM54.2885 22.41C54.8952 23.0073 55.6465 23.306 56.5425 23.306C57.4385 23.306 58.1899 23.0073 58.7965 22.41C59.4032 21.8033 59.7065 21.0333 59.7065 20.1C59.7065 19.1667 59.4032 18.3967 58.7965 17.79C58.1899 17.1833 57.4385 16.88 56.5425 16.88C55.6465 16.88 54.8952 17.1833 54.2885 17.79C53.6819 18.3967 53.3785 19.1667 53.3785 20.1C53.3785 21.0333 53.6819 21.8033 54.2885 22.41ZM66.2304 25.196C65.1291 25.196 64.2378 24.8413 63.5564 24.132C62.8844 23.4227 62.5484 22.522 62.5484 21.43C62.5484 20.2353 62.7258 19.316 63.0804 18.672C63.4351 18.0187 64.1491 17.426 65.2224 16.894C65.3811 16.8193 65.6051 16.7167 65.8944 16.586C66.1838 16.446 66.3798 16.348 66.4824 16.292C66.5944 16.236 66.7438 16.152 66.9304 16.04C67.1171 15.928 67.2478 15.83 67.3224 15.746C67.4064 15.6527 67.4951 15.536 67.5884 15.396C67.6818 15.256 67.7564 15.102 67.8124 14.934L69.2964 15.788C69.1751 16.3573 68.8998 16.8007 68.4704 17.118C68.0504 17.426 67.4158 17.7433 66.5664 18.07C65.9691 18.3033 65.5351 18.5367 65.2644 18.77C64.9938 19.0033 64.7978 19.2833 64.6764 19.61C65.1991 19.078 65.8991 18.812 66.7764 18.812C67.5511 18.812 68.2418 19.0967 68.8484 19.666C69.4551 20.226 69.7584 20.9727 69.7584 21.906C69.7584 22.8673 69.4318 23.656 68.7784 24.272C68.1344 24.888 67.2851 25.196 66.2304 25.196ZM64.9424 23.068C65.2878 23.3853 65.7124 23.544 66.2164 23.544C66.7204 23.544 67.1358 23.39 67.4624 23.082C67.7891 22.774 67.9524 22.382 67.9524 21.906C67.9524 21.43 67.7891 21.038 67.4624 20.73C67.1358 20.4127 66.7158 20.254 66.2024 20.254C65.7451 20.254 65.3344 20.3987 64.9704 20.688C64.6158 20.9773 64.4384 21.3647 64.4384 21.85C64.4384 22.3447 64.6064 22.7507 64.9424 23.068ZM74.9298 17.804C75.8725 17.804 76.6751 18.1633 77.3378 18.882C78.0098 19.5913 78.3458 20.464 78.3458 21.5C78.3458 22.536 78.0098 23.4133 77.3378 24.132C76.6751 24.8413 75.8725 25.196 74.9298 25.196C73.9498 25.196 73.1938 24.8553 72.6618 24.174V27.8H70.8558V18H72.6618V18.826C73.1938 18.1447 73.9498 17.804 74.9298 17.804ZM73.2078 22.928C73.5718 23.292 74.0338 23.474 74.5938 23.474C75.1538 23.474 75.6158 23.292 75.9798 22.928C76.3531 22.5547 76.5398 22.0787 76.5398 21.5C76.5398 20.9213 76.3531 20.45 75.9798 20.086C75.6158 19.7127 75.1538 19.526 74.5938 19.526C74.0338 19.526 73.5718 19.7127 73.2078 20.086C72.8438 20.45 72.6618 20.9213 72.6618 21.5C72.6618 22.0787 72.8438 22.5547 73.2078 22.928ZM84.9395 18H86.7455V25H84.9395V24.174C84.3981 24.8553 83.6375 25.196 82.6575 25.196C81.7241 25.196 80.9215 24.8413 80.2495 24.132C79.5868 23.4133 79.2555 22.536 79.2555 21.5C79.2555 20.464 79.5868 19.5913 80.2495 18.882C80.9215 18.1633 81.7241 17.804 82.6575 17.804C83.6375 17.804 84.3981 18.1447 84.9395 18.826V18ZM81.6075 22.928C81.9715 23.292 82.4335 23.474 82.9935 23.474C83.5535 23.474 84.0155 23.292 84.3795 22.928C84.7528 22.5547 84.9395 22.0787 84.9395 21.5C84.9395 20.9213 84.7528 20.45 84.3795 20.086C84.0155 19.7127 83.5535 19.526 82.9935 19.526C82.4335 19.526 81.9715 19.7127 81.6075 20.086C81.2435 20.45 81.0615 20.9213 81.0615 21.5C81.0615 22.0787 81.2435 22.5547 81.6075 22.928ZM93.8991 18V19.736H91.7151V25H89.9091V19.736H87.6971V18H93.8991ZM99.4556 18H101.262V25H99.4556V22.34H96.6696V25H94.8636V18H96.6696V20.646H99.4556V18ZM106.08 20.24C106.874 20.24 107.513 20.4593 107.998 20.898C108.484 21.3273 108.726 21.9013 108.726 22.62C108.726 23.3387 108.484 23.9173 107.998 24.356C107.513 24.7853 106.874 25 106.08 25H102.916V18H104.722V20.24H106.08ZM109.496 18H111.302V25H109.496V18ZM106.094 23.404C106.346 23.404 106.552 23.334 106.71 23.194C106.878 23.0447 106.962 22.8533 106.962 22.62C106.962 22.3867 106.878 22.1953 106.71 22.046C106.552 21.8967 106.346 21.822 106.094 21.822H104.722V23.404H106.094ZM114.127 17.104V15.536H118.187V17.104H114.127ZM118.005 18H119.349V25H117.585V21.024L114.295 25H112.951V18H114.715V21.976L118.005 18ZM128.606 21.43C129.316 21.7753 129.67 22.3307 129.67 23.096C129.67 23.6933 129.423 24.1927 128.928 24.594C128.434 24.9953 127.738 25.196 126.842 25.196C125.424 25.196 124.458 24.636 123.944 23.516L125.414 22.648C125.638 23.2827 126.119 23.6 126.856 23.6C127.192 23.6 127.449 23.5347 127.626 23.404C127.813 23.2733 127.906 23.096 127.906 22.872C127.906 22.4427 127.631 22.228 127.08 22.228H126.086V20.688H126.842C127.384 20.688 127.654 20.4733 127.654 20.044C127.654 19.8387 127.575 19.6753 127.416 19.554C127.258 19.4327 127.048 19.372 126.786 19.372C126.18 19.372 125.746 19.666 125.484 20.254L124.028 19.414C124.56 18.3407 125.47 17.804 126.758 17.804C127.561 17.804 128.196 18.0093 128.662 18.42C129.138 18.8213 129.376 19.3113 129.376 19.89C129.376 20.5713 129.12 21.0847 128.606 21.43ZM135.847 21.416C136.5 21.7333 136.827 22.2653 136.827 23.012C136.827 23.6 136.622 24.0807 136.211 24.454C135.81 24.818 135.236 25 134.489 25H130.807V18H134.209C134.946 18 135.516 18.182 135.917 18.546C136.328 18.91 136.533 19.386 136.533 19.974C136.533 20.59 136.304 21.0707 135.847 21.416ZM134.041 19.484H132.501V20.744H134.041C134.554 20.744 134.811 20.534 134.811 20.114C134.811 19.694 134.554 19.484 134.041 19.484ZM134.279 23.474C134.802 23.474 135.063 23.25 135.063 22.802C135.063 22.606 134.993 22.452 134.853 22.34C134.713 22.228 134.522 22.172 134.279 22.172H132.501V23.474H134.279ZM143.921 24.132C143.203 24.8413 142.325 25.196 141.289 25.196C140.253 25.196 139.376 24.8413 138.657 24.132C137.948 23.4133 137.593 22.536 137.593 21.5C137.593 20.464 137.948 19.5913 138.657 18.882C139.376 18.1633 140.253 17.804 141.289 17.804C142.325 17.804 143.203 18.1633 143.921 18.882C144.64 19.5913 144.999 20.464 144.999 21.5C144.999 22.536 144.64 23.4133 143.921 24.132ZM139.931 22.886C140.295 23.25 140.748 23.432 141.289 23.432C141.831 23.432 142.283 23.25 142.647 22.886C143.011 22.522 143.193 22.06 143.193 21.5C143.193 20.94 143.011 20.478 142.647 20.114C142.283 19.75 141.831 19.568 141.289 19.568C140.748 19.568 140.295 19.75 139.931 20.114C139.577 20.478 139.399 20.94 139.399 21.5C139.399 22.06 139.577 22.522 139.931 22.886ZM150.862 18H152.668V25H150.862V22.34H148.076V25H146.27V18H148.076V20.646H150.862V18ZM160.287 24.132C159.568 24.8413 158.691 25.196 157.655 25.196C156.619 25.196 155.741 24.8413 155.023 24.132C154.313 23.4133 153.959 22.536 153.959 21.5C153.959 20.464 154.313 19.5913 155.023 18.882C155.741 18.1633 156.619 17.804 157.655 17.804C158.691 17.804 159.568 18.1633 160.287 18.882C161.005 19.5913 161.365 20.464 161.365 21.5C161.365 22.536 161.005 23.4133 160.287 24.132ZM156.297 22.886C156.661 23.25 157.113 23.432 157.655 23.432C158.196 23.432 158.649 23.25 159.013 22.886C159.377 22.522 159.559 22.06 159.559 21.5C159.559 20.94 159.377 20.478 159.013 20.114C158.649 19.75 158.196 19.568 157.655 19.568C157.113 19.568 156.661 19.75 156.297 20.114C155.942 20.478 155.765 20.94 155.765 21.5C155.765 22.06 155.942 22.522 156.297 22.886ZM169.089 25H166.989L164.441 21.822V25H162.635V18H164.441V21.08L166.849 18H169.005L166.191 21.458L169.089 25Z" fill="white"/>
</svg>
