<svg width="25" height="24" viewBox="0 0 25 24" fill="none" xmlns="http://www.w3.org/2000/svg">
<path d="M10.5633 15.1605L7.04667 6.28979L3.53008 15.1605M7.04678 18.8805C4.89672 18.8805 3.13725 17.1115 2.99805 14.8744H11.0955C10.9563 17.1115 9.19684 18.8805 7.04678 18.8805Z" stroke="#F4A24B" stroke-width="1.5" stroke-linejoin="round"/>
<path d="M14.9004 14.8746C15.0396 17.1118 16.7991 18.8807 18.9491 18.8807C21.0992 18.8807 22.8587 17.1118 22.9979 14.8746H14.9004Z" fill="white"/>
<path d="M22.4656 15.1608L18.949 6.29004L15.4324 15.1608M18.9491 18.8807C16.7991 18.8807 15.0396 17.1118 14.9004 14.8746H22.9979C22.8587 17.1118 21.0992 18.8807 18.9491 18.8807Z" stroke="#F4A24B" stroke-width="1.5" stroke-linejoin="round"/>
<mask id="path-4-inside-1_13436_15778" fill="white">
<path fill-rule="evenodd" clip-rule="evenodd" d="M14.8822 6.28922C14.7509 7.25993 13.9617 8.00613 13.0078 8.00613C12.0539 8.00613 11.2647 7.25993 11.1334 6.28922H6.78613C6.78613 5.81511 7.17048 5.43076 7.64459 5.43076H11.1927C11.4254 4.60336 12.15 4 13.0078 4C13.8656 4 14.5901 4.60336 14.8229 5.43076H18.1005C18.5746 5.43076 18.959 5.81511 18.959 6.28922H14.8822ZM14.0898 6.00307C14.0898 6.63522 13.6054 7.14768 13.0078 7.14768C12.4102 7.14768 11.9258 6.63522 11.9258 6.00307C11.9258 5.37092 12.4102 4.85846 13.0078 4.85846C13.6054 4.85846 14.0898 5.37092 14.0898 6.00307Z"/>
</mask>
<path fill-rule="evenodd" clip-rule="evenodd" d="M14.8822 6.28922C14.7509 7.25993 13.9617 8.00613 13.0078 8.00613C12.0539 8.00613 11.2647 7.25993 11.1334 6.28922H6.78613C6.78613 5.81511 7.17048 5.43076 7.64459 5.43076H11.1927C11.4254 4.60336 12.15 4 13.0078 4C13.8656 4 14.5901 4.60336 14.8229 5.43076H18.1005C18.5746 5.43076 18.959 5.81511 18.959 6.28922H14.8822ZM14.0898 6.00307C14.0898 6.63522 13.6054 7.14768 13.0078 7.14768C12.4102 7.14768 11.9258 6.63522 11.9258 6.00307C11.9258 5.37092 12.4102 4.85846 13.0078 4.85846C13.6054 4.85846 14.0898 5.37092 14.0898 6.00307Z" fill="#F4A24B"/>
<path d="M14.8822 6.28922V4.78922H13.5713L13.3957 6.08822L14.8822 6.28922ZM11.1334 6.28922L12.6199 6.08822L12.4442 4.78922H11.1334V6.28922ZM11.1927 5.43076V6.93076H12.3289L12.6366 5.837L11.1927 5.43076ZM14.8229 5.43076L13.379 5.837L13.6867 6.93076H14.8229V5.43076ZM13.0078 8.64768C14.5122 8.64768 15.5898 7.38306 15.5898 6.00307H12.5898C12.5898 5.88737 12.6986 5.64768 13.0078 5.64768V8.64768ZM10.4258 6.00307C10.4258 7.38306 11.5034 8.64768 13.0078 8.64768V5.64768C13.317 5.64768 13.4258 5.88737 13.4258 6.00307H10.4258ZM13.0078 3.35846C11.5034 3.35846 10.4258 4.62307 10.4258 6.00307H13.4258C13.4258 6.11876 13.317 6.35846 13.0078 6.35846V3.35846ZM15.5898 6.00307C15.5898 4.62307 14.5122 3.35846 13.0078 3.35846V6.35846C12.6986 6.35846 12.5898 6.11876 12.5898 6.00307H15.5898ZM13.0078 9.50613C14.786 9.50613 16.147 8.1297 16.3686 6.49022L13.3957 6.08822C13.3549 6.39016 13.1375 6.50613 13.0078 6.50613V9.50613ZM9.64695 6.49022C9.86864 8.1297 11.2296 9.50613 13.0078 9.50613V6.50613C12.8781 6.50613 12.6607 6.39016 12.6199 6.08822L9.64695 6.49022ZM6.78613 7.78922H11.1334V4.78922H6.78613V7.78922ZM11.1927 3.93076H7.64459V6.93076H11.1927V3.93076ZM13.0078 2.5C11.4114 2.5 10.1448 3.61671 9.74872 5.02452L12.6366 5.837C12.7061 5.59 12.8886 5.5 13.0078 5.5V2.5ZM16.2669 5.02452C15.8708 3.61671 14.6042 2.5 13.0078 2.5V5.5C13.127 5.5 13.3095 5.59 13.379 5.837L16.2669 5.02452ZM18.1005 3.93076H14.8229V6.93076H18.1005V3.93076ZM14.8822 7.78922H18.959V4.78922H14.8822V7.78922ZM18.1005 6.93076C17.7462 6.93076 17.459 6.64353 17.459 6.28922H20.459C20.459 4.98668 19.403 3.93076 18.1005 3.93076V6.93076ZM8.28613 6.28922C8.28613 6.64353 7.9989 6.93076 7.64459 6.93076V3.93076C6.34205 3.93076 5.28613 4.98668 5.28613 6.28922H8.28613Z" fill="#F4A24B" mask="url(#path-4-inside-1_13436_15778)"/>
</svg>
