<svg width="16" height="17" viewBox="0 0 16 17" fill="none" xmlns="http://www.w3.org/2000/svg">
<path fill-rule="evenodd" clip-rule="evenodd" d="M8 15.5C4.13401 15.5 1 12.366 1 8.5C1 4.63401 4.13401 1.5 8 1.5C11.866 1.5 15 4.63401 15 8.5C14.9957 12.3642 11.8642 15.4957 8 15.5ZM8 2.5C4.68629 2.5 2 5.18629 2 8.5C2 11.8137 4.68629 14.5 8 14.5C11.3137 14.5 14 11.8137 14 8.5C13.9964 5.18779 11.3122 2.50361 8 2.5ZM10.2935 11.5L7.5 8.705V4H8.499V8.291L11 10.7935L10.2935 11.5Z" fill="white"/>
<mask id="mask0_13387_12606" style="mask-type:alpha" maskUnits="userSpaceOnUse" x="1" y="1" width="14" height="15">
<path fill-rule="evenodd" clip-rule="evenodd" d="M8 15.5C4.13401 15.5 1 12.366 1 8.5C1 4.63401 4.13401 1.5 8 1.5C11.866 1.5 15 4.63401 15 8.5C14.9957 12.3642 11.8642 15.4957 8 15.5ZM8 2.5C4.68629 2.5 2 5.18629 2 8.5C2 11.8137 4.68629 14.5 8 14.5C11.3137 14.5 14 11.8137 14 8.5C13.9964 5.18779 11.3122 2.50361 8 2.5ZM10.2935 11.5L7.5 8.705V4H8.499V8.291L11 10.7935L10.2935 11.5Z" fill="white"/>
</mask>
<g mask="url(#mask0_13387_12606)">
</g>
</svg>
