<svg width="25" height="24" viewBox="0 0 25 24" fill="none" xmlns="http://www.w3.org/2000/svg">
<path d="M10.2358 15.1606L6.71925 6.28992L3.20266 15.1606M6.71936 18.8806C4.5693 18.8806 2.80982 17.1116 2.67062 14.8745H10.7681C10.6289 17.1116 8.86941 18.8806 6.71936 18.8806Z" stroke="white" stroke-width="1.5" stroke-linejoin="round"/>
<path d="M22.1383 15.1608L18.6217 6.29004L15.1051 15.1608M18.6218 18.8807C16.4717 18.8807 14.7123 17.1118 14.5731 14.8746H22.6705C22.5313 17.1118 20.7718 18.8807 18.6218 18.8807Z" stroke="white" stroke-width="1.5" stroke-linejoin="round"/>
<mask id="path-3-inside-1_12824_15658" fill="white">
<path fill-rule="evenodd" clip-rule="evenodd" d="M14.5544 6.28922C14.4232 7.25993 13.634 8.00613 12.68 8.00613C11.7261 8.00613 10.9369 7.25993 10.8057 6.28922H6.45837C6.45837 5.81511 6.84272 5.43076 7.31683 5.43076H10.8649C11.0977 4.60336 11.8223 4 12.68 4C13.5378 4 14.2624 4.60336 14.4952 5.43076H17.7727C18.2468 5.43076 18.6312 5.81511 18.6312 6.28922H14.5544ZM13.7621 6.00307C13.7621 6.63522 13.2776 7.14768 12.68 7.14768C12.0824 7.14768 11.598 6.63522 11.598 6.00307C11.598 5.37092 12.0824 4.85846 12.68 4.85846C13.2776 4.85846 13.7621 5.37092 13.7621 6.00307Z"/>
</mask>
<path fill-rule="evenodd" clip-rule="evenodd" d="M14.5544 6.28922C14.4232 7.25993 13.634 8.00613 12.68 8.00613C11.7261 8.00613 10.9369 7.25993 10.8057 6.28922H6.45837C6.45837 5.81511 6.84272 5.43076 7.31683 5.43076H10.8649C11.0977 4.60336 11.8223 4 12.68 4C13.5378 4 14.2624 4.60336 14.4952 5.43076H17.7727C18.2468 5.43076 18.6312 5.81511 18.6312 6.28922H14.5544ZM13.7621 6.00307C13.7621 6.63522 13.2776 7.14768 12.68 7.14768C12.0824 7.14768 11.598 6.63522 11.598 6.00307C11.598 5.37092 12.0824 4.85846 12.68 4.85846C13.2776 4.85846 13.7621 5.37092 13.7621 6.00307Z" fill="white"/>
<path d="M14.5544 6.28922V4.78922H13.2436L13.0679 6.08822L14.5544 6.28922ZM10.8057 6.28922L12.2921 6.08822L12.1165 4.78922H10.8057V6.28922ZM10.8649 5.43076V6.93076H12.0011L12.3088 5.837L10.8649 5.43076ZM14.4952 5.43076L13.0512 5.837L13.359 6.93076H14.4952V5.43076ZM12.68 8.64768C14.1844 8.64768 15.2621 7.38306 15.2621 6.00307H12.2621C12.2621 5.88737 12.3709 5.64768 12.68 5.64768V8.64768ZM10.098 6.00307C10.098 7.38306 11.1757 8.64768 12.68 8.64768V5.64768C12.9892 5.64768 13.098 5.88737 13.098 6.00307H10.098ZM12.68 3.35846C11.1757 3.35846 10.098 4.62307 10.098 6.00307H13.098C13.098 6.11876 12.9892 6.35846 12.68 6.35846V3.35846ZM15.2621 6.00307C15.2621 4.62307 14.1844 3.35846 12.68 3.35846V6.35846C12.3709 6.35846 12.2621 6.11876 12.2621 6.00307H15.2621ZM12.68 9.50613C14.4582 9.50613 15.8192 8.1297 16.0409 6.49022L13.0679 6.08822C13.0271 6.39016 12.8097 6.50613 12.68 6.50613V9.50613ZM9.31919 6.49022C9.54088 8.1297 10.9019 9.50613 12.68 9.50613V6.50613C12.5503 6.50613 12.333 6.39016 12.2921 6.08822L9.31919 6.49022ZM6.45837 7.78922H10.8057V4.78922H6.45837V7.78922ZM10.8649 3.93076H7.31683V6.93076H10.8649V3.93076ZM12.68 2.5C11.0837 2.5 9.81704 3.61671 9.42096 5.02452L12.3088 5.837C12.3783 5.59 12.5608 5.5 12.68 5.5V2.5ZM15.9391 5.02452C15.543 3.61671 14.2764 2.5 12.68 2.5V5.5C12.7992 5.5 12.9817 5.59 13.0512 5.837L15.9391 5.02452ZM17.7727 3.93076H14.4952V6.93076H17.7727V3.93076ZM14.5544 7.78922H18.6312V4.78922H14.5544V7.78922ZM17.7727 6.93076C17.4184 6.93076 17.1312 6.64353 17.1312 6.28922H20.1312C20.1312 4.98668 19.0753 3.93076 17.7727 3.93076V6.93076ZM7.95837 6.28922C7.95837 6.64353 7.67114 6.93076 7.31683 6.93076V3.93076C6.01429 3.93076 4.95837 4.98668 4.95837 6.28922H7.95837Z" fill="white" mask="url(#path-3-inside-1_12824_15658)"/>
</svg>
