<svg width="154" height="24" viewBox="0 0 154 24" fill="none" xmlns="http://www.w3.org/2000/svg">
<path fill-rule="evenodd" clip-rule="evenodd" d="M6.45317 7.04724C6.5122 3.85738 7.42457 0.208837 7.42457 0.208837C4.22168 1.53111 2.40954 4.0297 1.92701 6.97934C1.60069 8.97415 2.98067 11.4179 4.79978 12.0141L4.79954 12C4.79954 10.1177 5.42041 8.39167 6.45317 7.04724ZM5.33669 14.9478C2.77766 13.093 0.27546 10.0449 0.27546 10.0449C-0.507234 13.5539 0.425668 16.5351 2.46955 18.628C3.95635 20.1507 6.97419 20.2691 8.37984 18.7153C7.01843 17.8593 5.94095 16.5355 5.33669 14.9478ZM18.6633 9.05221C21.2223 10.907 23.7246 13.9551 23.7246 13.9551C24.5072 10.446 23.5742 7.46479 21.5304 5.37188C20.0437 3.84921 17.0256 3.73081 15.6201 5.2846C16.9815 6.14067 18.059 7.46454 18.6633 9.05221ZM10.386 19.5715C7.72706 20.8323 4.58138 21.5581 4.58138 21.5581C7.16534 23.9399 10.1161 24.4898 12.8449 23.5955C14.7015 22.9869 16.1575 20.5628 15.8125 18.5899C14.7068 19.3359 13.4003 19.7675 12 19.7675C11.4451 19.7675 10.9049 19.6996 10.386 19.5715ZM13.6139 4.42854C16.2729 3.1677 19.4186 2.44177 19.4186 2.44177C16.8347 0.0601201 13.8839 -0.489812 11.1551 0.404493C9.29856 1.01296 7.84244 3.43733 8.18746 5.41012C9.29306 4.66414 10.5997 4.23248 12 4.23248C12.5549 4.23248 13.0952 4.30025 13.6139 4.42854ZM17.5468 16.9528C17.4878 20.1426 16.5754 23.791 16.5754 23.791C19.7784 22.4689 21.5905 19.9703 22.0729 17.0207C22.3993 15.0257 21.0193 12.582 19.2002 11.9858L19.2004 12C19.2004 13.8825 18.5797 15.6085 17.5468 16.9528ZM9.34935 12.4648C9.31818 10.8407 10.6083 10.0781 10.6083 10.0781C10.4718 10.0605 8.97328 10.4572 8.88846 12.4317C8.80376 14.4063 9.87489 16.3406 11.8139 16.8014C13.7528 17.2624 17.5533 15.9281 17.6444 11.766C17.7301 7.84784 14.081 4.45494 10.3921 5.80279C14.0382 5.24126 16.9762 7.49172 17.0299 11.6669C17.0795 15.5236 13.3491 16.46 11.8833 16.1201C10.4175 15.7803 9.38064 14.0887 9.34935 12.4648ZM13.6678 14.2082C13.6678 14.2082 14.9583 13.4459 14.9275 11.822C14.8967 10.198 13.8603 8.50605 12.3945 8.16576C10.9289 7.82547 7.19825 8.76051 7.24678 12.6174C7.29933 16.7924 10.2368 19.0439 13.8829 18.4836C10.1937 19.8302 6.5456 16.4361 6.63238 12.518C6.72453 8.35588 10.5254 7.02292 12.4643 7.48438C14.4031 7.94584 15.4737 9.88054 15.3884 11.8552C15.3031 13.8297 13.8045 14.2259 13.6678 14.2082ZM13.6183 10.0984C13.6183 10.0984 12.6763 8.87941 11.205 9.22497C9.73371 9.57054 8.39455 10.9938 8.36742 12.6109C8.34041 14.228 9.90995 17.9966 13.4087 17.202C17.1964 16.3417 18.6782 12.7985 17.4658 9.04685C19.4018 12.6925 17.0175 17.2083 13.4367 17.8716C9.63312 18.5761 7.68812 14.8097 7.7342 12.6684C7.7804 10.5271 9.33381 9.02102 11.1463 8.73082C12.9588 8.4405 13.6082 9.95052 13.6183 10.0984ZM10.1063 13.5938C10.1063 13.5938 10.7203 15.036 12.2242 15.1171C13.7281 15.1982 15.3655 14.2017 15.7832 12.6485C16.201 11.0952 15.5986 7.01499 12.0288 6.79599C8.16432 6.55907 5.87601 9.56157 6.13768 13.5247C5.15186 9.46005 8.54687 5.77301 12.1638 6.14178C16.0061 6.53362 16.9715 10.7175 16.4084 12.7713C15.8453 14.8254 13.981 15.8412 12.1611 15.6106C10.3413 15.38 10.0802 13.7396 10.1063 13.5938Z" fill="#F28F27"/>
<path d="M30.208 15.488H34.928V17.6H28V6.40003H34.848V8.51203H30.208V10.896H34.448V12.976H30.208V15.488Z" fill="white"/>
<path d="M40.6604 17.824C39.4124 17.824 38.3884 17.472 37.5884 16.768C36.7884 16.064 36.3884 15.12 36.3884 13.936V6.40003H38.5804V13.76C38.5804 14.3467 38.7457 14.8107 39.0764 15.152C39.4177 15.4934 39.9457 15.664 40.6604 15.664C41.375 15.664 41.8977 15.4934 42.2284 15.152C42.5697 14.8107 42.7404 14.3467 42.7404 13.76V6.40003H44.9484V13.936C44.9484 15.12 44.5484 16.064 43.7484 16.768C42.9484 17.472 41.919 17.824 40.6604 17.824Z" fill="white"/>
<path d="M53.0815 17.6L50.8255 13.712H49.1455V17.6H46.9375V6.40003H51.4175C52.4522 6.40003 53.3322 6.76269 54.0575 7.48803C54.7828 8.21336 55.1455 9.08803 55.1455 10.112C55.1455 10.8054 54.9482 11.4507 54.5535 12.048C54.1588 12.6347 53.6362 13.0774 52.9855 13.376L55.4655 17.6H53.0815ZM49.1455 8.46403V11.776H51.4175C51.8335 11.776 52.1908 11.616 52.4895 11.296C52.7882 10.9654 52.9375 10.5707 52.9375 10.112C52.9375 9.65336 52.7882 9.26403 52.4895 8.94403C52.1908 8.62403 51.8335 8.46403 51.4175 8.46403H49.1455Z" fill="white"/>
<path d="M66.0646 16.144C64.934 17.264 63.558 17.824 61.9366 17.824C60.3153 17.824 58.9393 17.264 57.8086 16.144C56.6886 15.0134 56.1286 13.632 56.1286 12C56.1286 10.368 56.6886 8.99203 57.8086 7.87203C58.9393 6.74136 60.3153 6.17603 61.9366 6.17603C63.558 6.17603 64.934 6.74136 66.0646 7.87203C67.1953 8.99203 67.7606 10.368 67.7606 12C67.7606 13.632 67.1953 15.0134 66.0646 16.144ZM59.3606 14.64C60.054 15.3227 60.9126 15.664 61.9366 15.664C62.9606 15.664 63.8193 15.3227 64.5126 14.64C65.206 13.9467 65.5526 13.0667 65.5526 12C65.5526 10.9334 65.206 10.0534 64.5126 9.36003C63.8193 8.66669 62.9606 8.32003 61.9366 8.32003C60.9126 8.32003 60.054 8.66669 59.3606 9.36003C58.6673 10.0534 58.3206 10.9334 58.3206 12C58.3206 13.0667 58.6673 13.9467 59.3606 14.64Z" fill="white"/>
<path d="M73.0725 17.792C72.0485 17.792 71.1685 17.552 70.4325 17.072C69.7072 16.5814 69.2005 15.9094 68.9125 15.056L69.8725 14.496C70.0752 15.1894 70.4485 15.7334 70.9925 16.128C71.5365 16.512 72.2352 16.704 73.0885 16.704C73.9205 16.704 74.5658 16.5227 75.0245 16.16C75.4938 15.7867 75.7285 15.296 75.7285 14.688C75.7285 14.1014 75.5152 13.6587 75.0885 13.36C74.6618 13.0614 73.9578 12.752 72.9765 12.432C71.8138 12.048 71.0458 11.7387 70.6725 11.504C69.8192 10.992 69.3925 10.2507 69.3925 9.28003C69.3925 8.33069 69.7232 7.58403 70.3845 7.04003C71.0458 6.48536 71.8618 6.20803 72.8325 6.20803C73.7072 6.20803 74.4645 6.43736 75.1045 6.89603C75.7445 7.34403 76.2192 7.92003 76.5285 8.62403L75.5845 9.15203C75.0725 7.91469 74.1552 7.29603 72.8325 7.29603C72.1392 7.29603 71.5792 7.46669 71.1525 7.80803C70.7258 8.14936 70.5125 8.62403 70.5125 9.23203C70.5125 9.78669 70.7045 10.2027 71.0885 10.48C71.4725 10.7574 72.1072 11.04 72.9925 11.328C73.3978 11.4667 73.6858 11.568 73.8565 11.632C74.0378 11.6854 74.2938 11.7814 74.6245 11.92C74.9658 12.048 75.2165 12.1654 75.3765 12.272C75.5365 12.368 75.7285 12.5067 75.9525 12.688C76.1872 12.8587 76.3525 13.0347 76.4485 13.216C76.5552 13.3867 76.6458 13.6 76.7205 13.856C76.8058 14.1014 76.8485 14.368 76.8485 14.656C76.8485 15.6054 76.5018 16.368 75.8085 16.944C75.1152 17.5094 74.2032 17.792 73.0725 17.792Z" fill="white"/>
<path d="M86.071 17.6L85.031 14.848H79.719L78.679 17.6H77.495L81.799 6.40003H82.951L87.255 17.6H86.071ZM80.119 13.792H84.631L82.375 7.79203L80.119 13.792Z" fill="white"/>
<path d="M95.8931 6.40003H97.0131V17.6H96.0531L89.8131 8.48003V17.6H88.6931V6.40003H89.6531L95.8931 15.52V6.40003Z" fill="white"/>
<path d="M103.888 6.40003C105.413 6.40003 106.672 6.94403 107.664 8.03203C108.667 9.10936 109.168 10.432 109.168 12C109.168 13.568 108.667 14.896 107.664 15.984C106.672 17.0614 105.413 17.6 103.888 17.6H99.5681V6.40003H103.888ZM103.888 16.544C105.115 16.544 106.117 16.1067 106.896 15.232C107.685 14.3574 108.08 13.28 108.08 12C108.08 10.72 107.685 9.64269 106.896 8.76803C106.117 7.89336 105.115 7.45603 103.888 7.45603H100.688V16.544H103.888Z" fill="white"/>
<path d="M112.204 16.544H117.644V17.6H111.084V6.40003H117.564V7.45603H112.204V11.424H117.164V12.48H112.204V16.544Z" fill="white"/>
<path d="M123.088 17.792C122.064 17.792 121.184 17.552 120.448 17.072C119.723 16.5814 119.216 15.9094 118.928 15.056L119.888 14.496C120.091 15.1894 120.464 15.7334 121.008 16.128C121.552 16.512 122.251 16.704 123.104 16.704C123.936 16.704 124.581 16.5227 125.04 16.16C125.509 15.7867 125.744 15.296 125.744 14.688C125.744 14.1014 125.531 13.6587 125.104 13.36C124.677 13.0614 123.973 12.752 122.992 12.432C121.829 12.048 121.061 11.7387 120.688 11.504C119.835 10.992 119.408 10.2507 119.408 9.28003C119.408 8.33069 119.739 7.58403 120.4 7.04003C121.061 6.48536 121.877 6.20803 122.848 6.20803C123.723 6.20803 124.48 6.43736 125.12 6.89603C125.76 7.34403 126.235 7.92003 126.544 8.62403L125.6 9.15203C125.088 7.91469 124.171 7.29603 122.848 7.29603C122.155 7.29603 121.595 7.46669 121.168 7.80803C120.741 8.14936 120.528 8.62403 120.528 9.23203C120.528 9.78669 120.72 10.2027 121.104 10.48C121.488 10.7574 122.123 11.04 123.008 11.328C123.413 11.4667 123.701 11.568 123.872 11.632C124.053 11.6854 124.309 11.7814 124.64 11.92C124.981 12.048 125.232 12.1654 125.392 12.272C125.552 12.368 125.744 12.5067 125.968 12.688C126.203 12.8587 126.368 13.0347 126.464 13.216C126.571 13.3867 126.661 13.6 126.736 13.856C126.821 14.1014 126.864 14.368 126.864 14.656C126.864 15.6054 126.517 16.368 125.824 16.944C125.131 17.5094 124.219 17.792 123.088 17.792Z" fill="white"/>
<path d="M128.709 6.40003H129.829V17.6H128.709V6.40003Z" fill="white"/>
<path d="M143.1 12.272V12.848C143.1 14.2347 142.604 15.408 141.612 16.368C140.62 17.3174 139.292 17.792 137.628 17.792C135.932 17.792 134.53 17.232 133.42 16.112C132.311 14.992 131.756 13.6214 131.756 12C131.756 10.3787 132.311 9.00803 133.42 7.88803C134.53 6.76803 135.932 6.20803 137.628 6.20803C138.663 6.20803 139.612 6.45869 140.476 6.96003C141.34 7.46136 142.007 8.12803 142.476 8.96003L141.484 9.53603C141.132 8.85336 140.61 8.30936 139.916 7.90403C139.223 7.49869 138.46 7.29603 137.628 7.29603C136.231 7.29603 135.09 7.74936 134.204 8.65603C133.319 9.56269 132.876 10.6774 132.876 12C132.876 13.3227 133.319 14.4374 134.204 15.344C135.09 16.2507 136.231 16.704 137.628 16.704C138.887 16.704 139.895 16.3894 140.652 15.76C141.41 15.12 141.842 14.3094 141.948 13.328H137.5V12.272H143.1Z" fill="white"/>
<path d="M152.221 6.40003H153.341V17.6H152.381L146.141 8.48003V17.6H145.021V6.40003H145.981L152.221 15.52V6.40003Z" fill="white"/>
</svg>
